<?xml version="1.0" encoding="utf-8"?>
<svg version="1.1" xmlns:xlink="http://www.w3.org/1999/xlink" width="135px" height="161px" xmlns="http://www.w3.org/2000/svg">
  <g transform="matrix(1 0 0 1 -934 -294 )">
    <path d="M 134.103515625 116.40006510416666  C 134.701171875 121.67588975694443  135 127.28363715277777  135 133.22330729166669  C 135 140.84006076388889  132.802734375 147.37369791666669  128.408203125 152.82421875  C 124.01367187500001 158.27473958333331  118.72265625000001 161  112.53515625 161  L 22.46484375 161  C 16.27734375 161  10.986328125000002 158.27473958333331  6.591796875000001 152.82421875  C 2.1972656250000004 147.37369791666669  0 140.84006076388889  0 133.22330729166669  C 0 127.28363715277777  0.2988281250000007 121.67588975694443  0.8964843750000008 116.40006510416666  C 1.4941406250000009 111.12424045138886  2.6015625000000004 105.8134765625  4.218750000000001 100.4677734375  C 5.835937500000002 95.1220703125  7.892578125000001 90.54503038194444  10.388671875 86.73665364583334  C 12.884765625000002 82.9282769097222  16.189453125 79.81868489583333  20.302734375 77.40787760416667  C 24.416015625 74.9970703125  29.144531250000004 73.79166666666667  34.48828125 73.79166666666667  C 43.69921875000001 82.7361111111111  54.70312500000001 87.20833333333334  67.5 87.20833333333334  C 80.29687500000003 87.20833333333334  91.30078125000001 82.7361111111111  100.51171875 73.79166666666667  C 105.85546875000001 73.79166666666667  110.583984375 74.9970703125  114.697265625 77.40787760416667  C 118.810546875 79.81868489583333  122.11523437500001 82.9282769097222  124.611328125 86.73665364583334  C 127.10742187500001 90.54503038194444  129.1640625 95.1220703125  130.78125 100.4677734375  C 132.3984375 105.8134765625  133.505859375 111.12424045138886  134.103515625 116.40006510416666  Z M 96.134765625 11.7919921875  C 104.044921875 19.6533203125  108 29.13932291666667  108 40.25  C 108 51.36067708333333  104.044921875 60.8466796875  96.134765625 68.7080078125  C 88.224609375 76.5693359375  78.6796875 80.5  67.5 80.5  C 56.3203125 80.5  46.775390625 76.5693359375  38.865234375 68.7080078125  C 30.955078125 60.8466796875  27 51.36067708333333  27 40.25  C 27 29.13932291666667  30.955078125 19.6533203125  38.865234375 11.7919921875  C 46.775390625 3.9306640625  56.3203125 0  67.5 0  C 78.6796875 0  88.224609375 3.9306640625  96.134765625 11.7919921875  Z " fill-rule="nonzero" fill="#000000" stroke="none" transform="matrix(1 0 0 1 934 294 )" />
  </g>
</svg>