<?xml version="1.0" encoding="utf-8"?>
<svg version="1.1" xmlns:xlink="http://www.w3.org/1999/xlink" width="24px" height="19px" xmlns="http://www.w3.org/2000/svg">
  <g transform="matrix(1 0 0 1 -415 -372 )">
    <path d="M 9.76530612244898 17.374609375  C 9.755102040816327 17.429036458333336  9.76530612244898 17.495833333333334  9.795918367346939 17.575  C 9.795918367346939 17.614583333333336  9.801020408163266 17.713541666666664  9.811224489795919 17.871875  C 9.821428571428573 18.030208333333334  9.823979591836736 18.161328125  9.818877551020408 18.265234375  C 9.813775510204083 18.369140625  9.798469387755103 18.485416666666666  9.77295918367347 18.6140625  C 9.747448979591837 18.742708333333336  9.696428571428571 18.839192708333336  9.619897959183675 18.903515625  C 9.543367346938776 18.967838541666666  9.438775510204083 19  9.306122448979592 19  L 4.408163265306123 19  C 3.1938775510204085 19  2.1556122448979593 18.581901041666665  1.2933673469387754 17.745703125  C 0.43112244897959184 16.909505208333336  0 15.902604166666666  0 14.725  L 0 4.2749999999999995  C 0 3.09739583333333  0.43112244897959184 2.090494791666666  1.2933673469387754 1.2542968750000005  C 2.1556122448979593 0.41809895833333066  3.1938775510204085 0  4.408163265306123 0  L 9.306122448979592 0  C 9.438775510204083 0  9.553571428571429 0.04700520833333066  9.650510204081632 0.14101562500000042  C 9.747448979591837 0.23502604166666596  9.795918367346939 0.34635416666666596  9.795918367346939 0.4750000000000004  C 9.795918367346939 0.5145833333333315  9.801020408163266 0.6135416666666655  9.811224489795919 0.7718750000000004  C 9.821428571428573 0.9302083333333311  9.823979591836736 1.0613281250000008  9.818877551020408 1.1652343749999992  C 9.813775510204083 1.2691406249999995  9.798469387755103 1.385416666666666  9.77295918367347 1.5140625000000005  C 9.747448979591837 1.6427083333333306  9.696428571428571 1.7391927083333316  9.619897959183675 1.8035156250000008  C 9.543367346938776 1.867838541666666  9.438775510204083 1.8999999999999995  9.306122448979592 1.8999999999999995  L 4.408163265306123 1.8999999999999995  C 3.7346938775510203 1.8999999999999995  3.158163265306123 2.13255208333333  2.678571428571429 2.59765625  C 2.1989795918367347 3.0627604166666655  1.9591836734693877 3.621875000000001  2 4.2749999999999995  L 2 14.725  C 1.9591836734693877 15.378124999999999  2.1989795918367347 15.93723958333333  2.678571428571429 16.40234375  C 3.158163265306123 16.867447916666666  3.7346938775510203 17.1  4.408163265306123 17.1  L 8.816326530612246 17.1  L 8.98469387755102 17.1  L 9.183673469387754 17.1  C 9.183673469387754 17.1  9.242346938775512 17.104947916666664  9.35969387755102 17.11484375  C 9.477040816326532 17.124739583333334  9.535714285714285 17.139583333333334  9.535714285714285 17.159375  C 9.535714285714285 17.179166666666664  9.576530612244898 17.206380208333336  9.658163265306122 17.241015625  C 9.739795918367347 17.275651041666666  9.775510204081634 17.320182291666665  9.76530612244898 17.374609375  Z M 23.709183673469386 8.83203125  C 23.903061224489797 9.020052083333333  24 9.242708333333333  24 9.5  C 24 9.757291666666665  23.903061224489797 9.979947916666665  23.709183673469386 10.16796875  L 15.382653061224492 18.24296875  C 15.188775510204081 18.430989583333336  14.95918367346939 18.525  14.693877551020408 18.525  C 14.42857142857143 18.525  14.198979591836736 18.430989583333336  14.005102040816325 18.24296875  C 13.811224489795919 18.054947916666666  13.714285714285714 17.832291666666666  13.714285714285714 17.575  L 13.714285714285714 13.299999999999999  L 6.857142857142857 13.299999999999999  C 6.591836734693878 13.299999999999999  6.362244897959184 13.205989583333334  6.168367346938776 13.01796875  C 5.974489795918367 12.829947916666665  5.877551020408163 12.607291666666665  5.877551020408163 12.35  L 5.877551020408163 6.6499999999999995  C 5.877551020408163 6.3927083333333306  5.974489795918367 6.1700520833333306  6.168367346938776 5.9820312499999995  C 6.362244897959184 5.794010416666667  6.591836734693878 5.700000000000001  6.857142857142857 5.700000000000001  L 13.714285714285714 5.700000000000001  L 13.714285714285714 1.4249999999999992  C 13.714285714285714 1.1677083333333302  13.811224489795919 0.9450520833333302  14.005102040816325 0.7570312499999992  C 14.198979591836736 0.569010416666666  14.42857142857143 0.4750000000000004  14.693877551020408 0.4750000000000004  C 14.95918367346939 0.4750000000000004  15.188775510204081 0.569010416666666  15.382653061224492 0.7570312499999992  L 23.709183673469386 8.83203125  Z " fill-rule="nonzero" fill="#000000" stroke="none" transform="matrix(1 0 0 1 415 372 )" />
  </g>
</svg>