<?xml version="1.0" encoding="utf-8"?>
<svg version="1.1" xmlns:xlink="http://www.w3.org/1999/xlink" width="29px" height="16px" xmlns="http://www.w3.org/2000/svg">
  <g transform="matrix(1 0 0 1 -359 -22 )">
    <path d="M 28.4619140625 0.5277777777777786  C 28.820638020833336 0.879629629629628  29 1.2962962962962923  29 1.7777777777777786  C 29 2.2592592592592577  28.820638020833336 2.675925925925924  28.4619140625 3.0277777777777786  L 15.7744140625 15.472222222222221  C 15.415690104166668 15.824074074074076  14.990885416666668 16  14.5 16  C 14.009114583333336 16  13.584309895833336 15.824074074074076  13.2255859375 15.472222222222221  L 0.5380859375 3.0277777777777786  C 0.17936197916666666 2.675925925925924  0 2.2592592592592577  0 1.7777777777777786  C 0 1.2962962962962923  0.17936197916666666 0.879629629629628  0.5380859375 0.5277777777777786  C 0.8968098958333334 0.17592592592592382  1.3216145833333335 0  1.8125 0  L 27.1875 0  C 27.678385416666668 0  28.103190104166668 0.17592592592592382  28.4619140625 0.5277777777777786  Z " fill-rule="nonzero" fill="#000000" stroke="none" transform="matrix(1 0 0 1 359 22 )" />
  </g>
</svg>