<?xml version="1.0" encoding="utf-8"?>
<svg version="1.1" xmlns:xlink="http://www.w3.org/1999/xlink" width="14px" height="14px" xmlns="http://www.w3.org/2000/svg">
  <g transform="matrix(1 0 0 1 -157 -1087 )">
    <path d="M 164 1087  C 167.92 1087  171 1090.08  171 1094  C 171 1097.92  167.92 1101  164 1101  C 160.08 1101  157 1097.92  157 1094  C 157 1090.08  160.08 1087  164 1087  Z " fill-rule="nonzero" fill="#ffffff" stroke="none" />
    <path d="M 164 1087.5  C 167.64 1087.5  170.5 1090.36  170.5 1094  C 170.5 1097.64  167.64 1100.5  164 1100.5  C 160.36 1100.5  157.5 1097.64  157.5 1094  C 157.5 1090.36  160.36 1087.5  164 1087.5  Z " stroke-width="1" stroke="#797979" fill="none" />
  </g>
</svg>