<?xml version="1.0" encoding="utf-8"?>
<svg version="1.1" xmlns:xlink="http://www.w3.org/1999/xlink" width="23px" height="24px" xmlns="http://www.w3.org/2000/svg">
  <g transform="matrix(1 0 0 1 -412 -415 )">
    <path d="M 15.35945485519591 20.691964285714285  C 15.437819420783645 20.772321428571427  15.477001703577512 20.875  15.477001703577512 21  L 15.477001703577512 23.57142857142857  C 15.477001703577512 23.69642857142857  15.437819420783645 23.799107142857142  15.35945485519591 23.879464285714285  C 15.281090289608176 23.95982142857143  15.180957789134963 24  15.059057353776263 24  L 11.715502555366268 24  C 11.593602120007573 24  11.493469619534356 23.95982142857143  11.415105053946622 23.879464285714285  C 11.336740488358886 23.799107142857142  11.29755820556502 23.69642857142857  11.29755820556502 23.57142857142857  L 11.29755820556502 21  C 11.29755820556502 20.875  11.336740488358886 20.772321428571427  11.415105053946622 20.691964285714285  C 11.493469619534356 20.611607142857142  11.593602120007573 20.571428571428573  11.715502555366268 20.571428571428573  L 15.059057353776263 20.571428571428573  C 15.180957789134963 20.571428571428573  15.281090289608176 20.611607142857142  15.35945485519591 20.691964285714285  Z M 9.090289608177171 18.977678571428573  C 9.168654173764907 19.058035714285715  9.207836456558773 19.16071428571429  9.207836456558773 19.285714285714285  C 9.207836456558773 19.392857142857142  9.16430058678781 19.5  9.077228847245882 19.607142857142858  L 4.910846110164679 23.879464285714285  C 4.823774370622753 23.95982142857143  4.723641870149536 24  4.610448608745031 24  C 4.50596252129472 24  4.4058300208215035 23.95982142857143  4.310051107325384 23.879464285714285  L 0.1306076093128904 19.59375  C 0 19.450892857142858  -0.03047510883967441 19.294642857142858  0.039182282793867124 19.125  C 0.1088396744274087 18.946428571428573  0.2394472837402991 18.857142857142858  0.43100511073253833 18.857142857142858  L 3 18.857142857142858  L 3 0.4285714285714297  C 2.9386712095400336 0.30357142857142616  2.977853492333901 0.20089285714285676  3.0562180579216354 0.12053571428571352  C 3.1345826235093694 0.04017857142857029  3.234715123982586 0  3.356615559341283 0  L 5.864281658148778 0  C 5.986182093507477 0  6.086314593980692 0.04017857142857029  6.1646791595684265 0.12053571428571352  C 6.243043725156161 0.20089285714285676  6.282226007950028 0.30357142857142616  6.282226007950028 0.4285714285714297  L 6.282226007950028 18.857142857142858  L 8.789892106757524 18.857142857142858  C 8.911792542116222 18.857142857142858  9.01192504258944 18.897321428571427  9.090289608177171 18.977678571428573  Z M 17.867120954003408 13.834821428571427  C 17.94548551959114 13.915178571428573  17.984667802385008 14.017857142857142  17.984667802385008 14.142857142857142  L 17.984667802385008 16.714285714285715  C 17.984667802385008 16.83928571428571  17.94548551959114 16.941964285714285  17.867120954003408 17.022321428571427  C 17.788756388415674 17.102678571428573  17.68862388794246 17.142857142857142  17.56672345258376 17.142857142857142  L 11.715502555366268 17.142857142857142  C 11.593602120007573 17.142857142857142  11.493469619534356 17.102678571428573  11.415105053946622 17.022321428571427  C 11.336740488358886 16.941964285714285  11.29755820556502 16.83928571428571  11.29755820556502 16.714285714285715  L 11.29755820556502 14.142857142857142  C 11.29755820556502 14.017857142857142  11.336740488358886 13.915178571428573  11.415105053946622 13.834821428571427  C 11.493469619534356 13.754464285714286  11.593602120007573 13.714285714285714  11.715502555366268 13.714285714285714  L 17.56672345258376 13.714285714285714  C 17.68862388794246 13.714285714285714  17.788756388415674 13.754464285714286  17.867120954003408 13.834821428571427  Z M 20.374787052810902 6.97767857142857  C 20.45315161839864 7.0580357142857135  20.492333901192506 7.160714285714283  20.492333901192506 7.2857142857142865  L 20.492333901192506 9.857142857142858  C 20.492333901192506 9.982142857142854  20.45315161839864 10.08482142857143  20.374787052810902 10.16517857142857  C 20.296422487223168 10.245535714285714  20.196289986749953 10.285714285714286  20.074389551391256 10.285714285714286  L 11.715502555366268 10.285714285714286  C 11.593602120007573 10.285714285714286  11.493469619534356 10.245535714285714  11.415105053946622 10.16517857142857  C 11.336740488358886 10.08482142857143  11.29755820556502 9.982142857142854  11.29755820556502 9.857142857142858  L 11.29755820556502 7.2857142857142865  C 11.29755820556502 7.160714285714283  11.336740488358886 7.0580357142857135  11.415105053946622 6.97767857142857  C 11.493469619534356 6.89732142857143  11.593602120007573 6.857142857142857  11.715502555366268 6.857142857142857  L 20.074389551391256 6.857142857142857  C 20.196289986749953 6.857142857142857  20.296422487223168 6.89732142857143  20.374787052810902 6.97767857142857  Z M 22.8824531516184 0.12053571428571352  C 22.960817717206133 0.20089285714285676  23 0.30357142857142616  23 0.4285714285714297  L 23 3  C 23 3.1249999999999982  22.960817717206133 3.2276785714285703  22.8824531516184 3.3080357142857135  C 22.804088586030666 3.3883928571428568  22.70395608555745 3.4285714285714297  22.58205565019875 3.4285714285714297  L 11.715502555366268 3.4285714285714297  C 11.593602120007573 3.4285714285714297  11.493469619534356 3.3883928571428568  11.415105053946622 3.3080357142857135  C 11.336740488358886 3.2276785714285703  11.29755820556502 3.1249999999999982  11.29755820556502 3  L 11.29755820556502 0.4285714285714297  C 11.29755820556502 0.30357142857142616  11.336740488358886 0.20089285714285676  11.415105053946622 0.12053571428571352  C 11.493469619534356 0.04017857142857029  11.593602120007573 0  11.715502555366268 0  L 22.58205565019875 0  C 22.70395608555745 0  22.804088586030666 0.04017857142857029  22.8824531516184 0.12053571428571352  Z " fill-rule="nonzero" fill="#000000" stroke="none" transform="matrix(1 0 0 1 412 415 )" />
  </g>
</svg>