<?xml version="1.0" encoding="utf-8"?>
<svg version="1.1" xmlns:xlink="http://www.w3.org/1999/xlink" width="32px" height="29px" xmlns="http://www.w3.org/2000/svg">
  <g transform="matrix(1 0 0 1 -356 -255 )">
    <path d="M 0 23.727272727272727  L 7.333333333333333 23.727272727272727  L 7.333333333333333 26.363636363636363  L 0 26.363636363636363  L 0 23.727272727272727  Z M 9.333333333333334 21.09090909090909  L 14.666666666666666 21.09090909090909  C 15.027777777777779 21.09090909090909  15.340277777777779 21.221354166666664  15.604166666666666 21.482244318181817  C 15.868055555555555 21.74313446969697  16 22.052083333333336  16 22.40909090909091  L 16 27.681818181818183  C 16 28.038825757575758  15.868055555555555 28.347774621212118  15.604166666666666 28.60866477272727  C 15.340277777777779 28.869554924242426  15.027777777777779 29  14.666666666666666 29  L 9.333333333333334 29  C 8.972222222222223 29  8.659722222222223 28.869554924242426  8.395833333333334 28.60866477272727  C 8.131944444444445 28.347774621212118  8 28.038825757575758  8 27.681818181818183  L 8 22.40909090909091  C 8 22.052083333333336  8.131944444444445 21.74313446969697  8.395833333333334 21.482244318181817  C 8.659722222222223 21.221354166666664  8.972222222222223 21.09090909090909  9.333333333333334 21.09090909090909  Z M 0 13.181818181818183  L 18 13.181818181818183  L 18 15.818181818181817  L 0 15.818181818181817  L 0 13.181818181818183  Z M 0 2.636363636363637  L 4.666666666666667 2.636363636363637  L 4.666666666666667 5.272727272727272  L 0 5.272727272727272  L 0 2.636363636363637  Z M 16.666666666666668 23.727272727272727  L 32 23.727272727272727  L 32 26  L 16.666666666666668 26  L 16.666666666666668 23.727272727272727  Z M 6.666666666666667 0  L 12 0  C 12.361111111111112 0  12.673611111111112 0.13044507575757303  12.9375 0.39133522727272874  C 13.201388888888891 0.6522253787878748  13.333333333333334 0.9611742424242408  13.333333333333334 1.318181818181817  L 13.333333333333334 6.590909090909092  C 13.333333333333334 6.947916666666664  13.201388888888891 7.256865530303028  12.9375 7.517755681818183  C 12.673611111111112 7.778645833333329  12.361111111111112 7.909090909090908  12 7.909090909090908  L 6.666666666666667 7.909090909090908  C 6.305555555555556 7.909090909090908  5.993055555555556 7.778645833333329  5.729166666666667 7.517755681818183  C 5.465277777777779 7.256865530303028  5.333333333333333 6.947916666666664  5.333333333333333 6.590909090909092  L 5.333333333333333 1.318181818181817  C 5.333333333333333 0.9611742424242408  5.465277777777779 0.6522253787878748  5.729166666666667 0.39133522727272874  C 5.993055555555556 0.13044507575757303  6.305555555555556 0  6.666666666666667 0  Z M 20 10.545454545454545  L 25.333333333333332 10.545454545454545  C 25.694444444444446 10.545454545454545  26.006944444444446 10.675899621212121  26.270833333333332 10.936789772727272  C 26.534722222222225 11.197679924242424  26.666666666666668 11.506628787878787  26.666666666666668 11.863636363636363  L 26.666666666666668 17.136363636363633  C 26.666666666666668 17.49337121212121  26.534722222222225 17.802320075757574  26.270833333333332 18.063210227272727  C 26.006944444444446 18.32410037878788  25.694444444444446 18.454545454545453  25.333333333333332 18.454545454545453  L 20 18.454545454545453  C 19.63888888888889 18.454545454545453  19.32638888888889 18.32410037878788  19.0625 18.063210227272727  C 18.79861111111111 17.802320075757574  18.666666666666668 17.49337121212121  18.666666666666668 17.136363636363633  L 18.666666666666668 11.863636363636363  C 18.666666666666668 11.506628787878787  18.79861111111111 11.197679924242424  19.0625 10.936789772727272  C 19.32638888888889 10.675899621212121  19.63888888888889 10.545454545454545  20 10.545454545454545  Z M 27.333333333333332 13.181818181818183  L 32 13.181818181818183  L 32 15.818181818181817  L 27.333333333333332 15.818181818181817  L 27.333333333333332 13.181818181818183  Z M 14 3  L 32 3  L 32 5.272727272727272  L 14 5.272727272727272  L 14 3  Z " fill-rule="nonzero" fill="#ffffff" stroke="none" transform="matrix(1 0 0 1 356 255 )" />
  </g>
</svg>