<?xml version="1.0" encoding="utf-8"?>
<svg version="1.1" xmlns:xlink="http://www.w3.org/1999/xlink" width="26px" height="32px" xmlns="http://www.w3.org/2000/svg">
  <g transform="matrix(1 0 0 1 -321 -13 )">
    <path d="M 25.82734375 23.135416666666664  C 25.942447916666666 24.184027777777775  26 25.29861111111111  26 26.479166666666668  C 26 27.993055555555557  25.576822916666668 29.291666666666668  24.73046875 30.375  C 23.884114583333336 31.458333333333332  22.86510416666667 32  21.673437500000002 32  L 4.3265625000000005 32  C 3.134895833333333 32  2.115885416666667 31.458333333333332  1.2695312500000002 30.375  C 0.4231770833333335 29.291666666666668  0 27.993055555555557  0 26.479166666666668  C 0 25.29861111111111  0.05755208333333347 24.184027777777775  0.17265625000000015 23.135416666666664  C 0.2877604166666668 22.08680555555555  0.5010416666666668 21.03125  0.8125000000000002 19.96875  C 1.1239583333333336 18.90625  1.5200520833333335 17.99652777777778  2.0007812499999997 17.239583333333336  C 2.481510416666667 16.482638888888886  3.1179687499999997 15.864583333333332  3.91015625 15.385416666666668  C 4.70234375 14.90625  5.613020833333334 14.666666666666668  6.6421875 14.666666666666668  C 8.416145833333335 16.444444444444443  10.535416666666668 17.333333333333336  13 17.333333333333336  C 15.464583333333337 17.333333333333336  17.58385416666667 16.444444444444443  19.357812499999998 14.666666666666668  C 20.38697916666667 14.666666666666668  21.29765625 14.90625  22.08984375 15.385416666666668  C 22.88203125 15.864583333333332  23.518489583333334 16.482638888888886  23.99921875 17.239583333333336  C 24.47994791666667 17.99652777777778  24.876041666666666 18.90625  25.1875 19.96875  C 25.498958333333334 21.03125  25.712239583333336 22.08680555555555  25.82734375 23.135416666666664  Z M 18.51484375 2.34375  C 20.03828125 3.90625  20.8 5.791666666666668  20.8 8  C 20.8 10.208333333333332  20.03828125 12.09375  18.51484375 13.65625  C 16.99140625 15.21875  15.153125 16  13 16  C 10.846874999999999 16  9.008593750000001 15.21875  7.48515625 13.65625  C 5.96171875 12.09375  5.2 10.208333333333332  5.2 8  C 5.2 5.791666666666668  5.96171875 3.90625  7.48515625 2.34375  C 9.008593750000001 0.78125  10.846874999999999 0  13 0  C 15.153125 0  16.99140625 0.78125  18.51484375 2.34375  Z " fill-rule="nonzero" fill="#000000" stroke="none" transform="matrix(1 0 0 1 321 13 )" />
  </g>
</svg>