<?xml version="1.0" encoding="utf-8"?>
<svg version="1.1" xmlns:xlink="http://www.w3.org/1999/xlink" width="40px" height="40px" xmlns="http://www.w3.org/2000/svg">
  <g transform="matrix(1 0 0 1 -14 -341 )">
    <path d="M 34 341  C 45.2 341  54 349.8  54 361  C 54 372.2  45.2 381  34 381  C 22.799999999999997 381  14 372.2  14 361  C 14 349.8  22.799999999999997 341  34 341  Z " fill-rule="nonzero" fill="#ffffff" stroke="none" />
    <path d="M 34 341.5  C 44.92 341.5  53.5 350.08  53.5 361  C 53.5 371.92  44.92 380.5  34 380.5  C 23.08 380.5  14.5 371.92  14.5 361  C 14.5 350.08  23.08 341.5  34 341.5  Z " stroke-width="1" stroke="#797979" fill="none" />
  </g>
</svg>