<?xml version="1.0" encoding="utf-8"?>
<svg version="1.1" xmlns:xlink="http://www.w3.org/1999/xlink" width="13px" height="7px" xmlns="http://www.w3.org/2000/svg">
  <g transform="matrix(1 0 0 1 -653 -277 )">
    <path d="M 12.7587890625 0.23090277777777812  C 12.919596354166668 0.38483796296296224  13 0.5671296296296279  13 0.7777777777777781  C 13 0.9884259259259253  12.919596354166668 1.1707175925925917  12.7587890625 1.3246527777777781  L 7.0712890625 6.769097222222221  C 6.910481770833334 6.923032407407408  6.720052083333334 7  6.5 7  C 6.279947916666668 7  6.089518229166668 6.923032407407408  5.9287109375 6.769097222222221  L 0.2412109375 1.3246527777777781  C 0.08040364583333333 1.1707175925925917  0 0.9884259259259253  0 0.7777777777777781  C 0 0.5671296296296279  0.08040364583333333 0.38483796296296224  0.2412109375 0.23090277777777812  C 0.4020182291666667 0.07696759259259167  0.5924479166666667 0  0.8125 0  L 12.1875 0  C 12.407552083333334 0  12.597981770833334 0.07696759259259167  12.7587890625 0.23090277777777812  Z " fill-rule="nonzero" fill="#000000" stroke="none" transform="matrix(1 0 0 1 653 277 )" />
  </g>
</svg>