<?xml version="1.0" encoding="utf-8"?>
<svg version="1.1" xmlns:xlink="http://www.w3.org/1999/xlink" width="167px" height="96px" xmlns="http://www.w3.org/2000/svg">
  <defs>
    <mask fill="white" id="clip13">
      <path d="M 15.090909090909092 95  L 166 95  L 166 13.571428571428571  L 158.45454545454547 13.571428571428571  L 158.45454545454547 6.785714285714286  L 150.9090909090909 6.785714285714286  L 150.9090909090909 0  L 0 0  L 0 81.42857142857143  L 7.545454545454546 81.42857142857143  L 7.545454545454546 88.21428571428572  L 15.090909090909092 88.21428571428572  L 15.090909090909092 95  Z " fill-rule="evenodd" />
    </mask>
  </defs>
  <g transform="matrix(1 0 0 1 -13 -158 )">
    <path d="M 15.090909090909092 95  L 166 95  L 166 13.571428571428571  L 158.45454545454547 13.571428571428571  L 158.45454545454547 6.785714285714286  L 150.9090909090909 6.785714285714286  L 150.9090909090909 0  L 0 0  L 0 81.42857142857143  L 7.545454545454546 81.42857142857143  L 7.545454545454546 88.21428571428572  L 15.090909090909092 88.21428571428572  L 15.090909090909092 95  Z M 16.6 87.5  L 157.5 14.928571428571429  L 157.5 87.5  L 16.6 87.5  Z M 9.054545454545455 80.75  L 150.5 8.142857142857142  L 150.5 80.5  L 110.16363636363637 80.5  L 9.054545454545455 80.75  Z " fill-rule="nonzero" fill="#ffffff" stroke="none" transform="matrix(1 0 0 1 13 158 )" />
    <path d="M 15.090909090909092 95  L 166 95  L 166 13.571428571428571  L 158.45454545454547 13.571428571428571  L 158.45454545454547 6.785714285714286  L 150.9090909090909 6.785714285714286  L 150.9090909090909 0  L 0 0  L 0 81.42857142857143  L 7.545454545454546 81.42857142857143  L 7.545454545454546 88.21428571428572  L 15.090909090909092 88.21428571428572  L 15.090909090909092 95  Z " stroke-width="2" stroke="#797979" fill="none" transform="matrix(1 0 0 1 13 158 )" mask="url(#clip13)" />
    <path d="M 157.5 14.928571428571429  L 157.5 87.5  L 16.6 87.5  M 150.5 8.142857142857142  L 150.5 80.5  L 110.16363636363637 80.5  L 9.054545454545455 80.75  " stroke-width="1" stroke="#797979" fill="none" transform="matrix(1 0 0 1 13 158 )" mask="url(#clip13)" />
  </g>
</svg>