<?xml version="1.0" encoding="utf-8"?>
<svg version="1.1" xmlns:xlink="http://www.w3.org/1999/xlink" width="31px" height="19px" xmlns="http://www.w3.org/2000/svg">
  <g transform="matrix(1 0 0 1 -631 -224 )">
    <path d="M 19.173177083333336 8.139154160982264  C 19.28081597222222 8.683492496589357  19.334635416666664 9.210550250113688  19.334635416666664 9.720327421555252  C 19.334635416666664 11.517507958162799  18.944444444444446 13.118121873578898  18.1640625 14.522169167803549  C 17.383680555555554 15.926216462028194  16.271412037037038 17.023533424283766  14.827256944444445 17.81412005457026  C 13.383101851851853 18.604706684856755  11.728153935185187 19  9.862413194444445 19  C 8.525896990740742 19  7.247685185185186 18.74943155979991  6.027777777777778 18.248294679399727  C 4.807870370370371 17.747157798999545  3.758391203703704 17.073215097771715  2.8793402777777777 16.226466575716234  C 2.000289351851852 15.379718053660753  1.3006365740740742 14.368804001819008  0.7803819444444445 13.193724420190996  C 0.2601273148148149 12.018644838562983  0 10.787403365165984  0 9.5  C 0 8.212596634834014  0.2601273148148149 6.981355161437014  0.7803819444444445 5.806275579809004  C 1.3006365740740742 4.63119599818099  2.000289351851852 3.6202819463392437  2.8793402777777777 2.773533424283766  C 3.758391203703704 1.926784902228284  4.807870370370371 1.2528422010004518  6.027777777777778 0.751705320600272  C 7.247685185185186 0.25056844020008995  8.525896990740742 0  9.862413194444445 0  C 12.427806712962964 0  14.629918981481485 0.829467939972714  16.46875 2.488403819918144  L 13.79123263888889 4.9638472032742165  C 12.741753472222223 3.987494315597998  11.432146990740742 3.49931787175989  9.862413194444445 3.49931787175989  C 8.759114583333332 3.49931787175989  7.738787615740742 3.767166894042744  6.801432291666666 4.302864938608458  C 5.8640769675925934 4.83856298317417  5.12181712962963 5.566507503410642  4.574652777777778 6.486698499317872  C 4.0274884259259265 7.406889495225102  3.75390625 8.411323328785812  3.75390625 9.5  C 3.75390625 10.588676671214188  4.0274884259259265 11.593110504774899  4.574652777777778 12.513301500682129  C 5.12181712962963 13.43349249658936  5.8640769675925934 14.161437016825827  6.801432291666666 14.697135061391542  C 7.738787615740742 15.232833105957251  8.759114583333332 15.500682128240108  9.862413194444445 15.500682128240108  C 10.606915509259261 15.500682128240108  11.290870949074074 15.40131878126421  11.91427951388889 15.202592087312414  C 12.537688078703704 15.00386539336062  13.051215277777777 14.755457025920872  13.45486111111111 14.457366984993177  C 13.858506944444445 14.159276944065484  14.210575810185187 13.820145520691222  14.511067708333332 13.439972714870397  C 14.811559606481485 13.059799909049566  15.031322337962964 12.701227830832195  15.170355902777777 12.36425648021828  C 15.309389467592593 12.027285129604365  15.405815972222223 11.707594361073214  15.459635416666668 11.405184174624829  L 9.862413194444445 11.405184174624829  L 9.862413194444445 8.139154160982264  L 19.173177083333336 8.139154160982264  Z M 28.18793402777778 8.139154160982264  L 31 8.139154160982264  L 31 10.860845839017736  L 28.18793402777778 10.860845839017736  L 28.18793402777778 13.569577080491133  L 25.362413194444446 13.569577080491133  L 25.362413194444446 10.860845839017736  L 22.55034722222222 10.860845839017736  L 22.55034722222222 8.139154160982264  L 25.362413194444446 8.139154160982264  L 25.362413194444446 5.430422919508868  L 28.18793402777778 5.430422919508868  L 28.18793402777778 8.139154160982264  Z " fill-rule="nonzero" fill="#000000" stroke="none" transform="matrix(1 0 0 1 631 224 )" />
  </g>
</svg>