<?xml version="1.0" encoding="utf-8"?>
<svg version="1.1" xmlns:xlink="http://www.w3.org/1999/xlink" width="24px" height="24px" xmlns="http://www.w3.org/2000/svg">
  <g transform="matrix(1 0 0 1 -631 -272 )">
    <path d="M 4.5 0  L 19.5 0  C 20.739583333333336 0  21.799479166666668 0.4401041666666652  22.6796875 1.3203125000000009  C 23.559895833333332 2.2005208333333313  24 3.2604166666666634  24 4.5  L 24 19.5  C 24 20.739583333333332  23.559895833333332 21.799479166666668  22.6796875 22.6796875  C 21.799479166666668 23.559895833333332  20.739583333333336 24  19.5 24  L 16.5625 24  L 16.5625 14.703124999999998  L 19.671875 14.703124999999998  L 20.140625 11.078125  L 16.5625 11.078125  L 16.5625 8.765625  C 16.5625 8.182291666666664  16.684895833333336 7.744791666666664  16.9296875 7.453125  C 17.174479166666668 7.161458333333333  17.651041666666668 7.015625000000001  18.359375 7.015625000000001  L 20.265625 6.999999999999999  L 20.265625 3.765624999999999  C 19.609375 3.671874999999999  18.682291666666668 3.624999999999999  17.484375 3.624999999999999  C 16.067708333333336 3.624999999999999  14.934895833333336 4.041666666666664  14.0859375 4.875  C 13.236979166666668 5.708333333333333  12.8125 6.885416666666665  12.8125 8.40625  L 12.8125 11.078125  L 9.6875 11.078125  L 9.6875 14.703124999999998  L 12.8125 14.703124999999998  L 12.8125 24  L 4.5 24  C 3.260416666666667 24  2.2005208333333335 23.559895833333332  1.3203125 22.6796875  C 0.44010416666666663 21.799479166666668  0 20.739583333333332  0 19.5  L 0 4.5  C 0 3.2604166666666634  0.44010416666666663 2.2005208333333313  1.3203125 1.3203125000000009  C 2.2005208333333335 0.4401041666666652  3.260416666666667 0  4.5 0  Z " fill-rule="nonzero" fill="#000000" stroke="none" transform="matrix(1 0 0 1 631 272 )" />
  </g>
</svg>