<?xml version="1.0" encoding="utf-8"?>
<svg version="1.1" xmlns:xlink="http://www.w3.org/1999/xlink" width="29px" height="29px" xmlns="http://www.w3.org/2000/svg">
  <g transform="matrix(1 0 0 1 -1003 -89 )">
    <path d="M 1017.5 89  C 1025.62 89  1032 95.38  1032 103.5  C 1032 111.62  1025.62 118  1017.5 118  C 1009.38 118  1003 111.62  1003 103.5  C 1003 95.38  1009.38 89  1017.5 89  Z " fill-rule="nonzero" fill="#ffffff" stroke="none" />
    <path d="M 1017.5 89.5  C 1025.34 89.5  1031.5 95.66  1031.5 103.5  C 1031.5 111.34  1025.34 117.5  1017.5 117.5  C 1009.66 117.5  1003.5 111.34  1003.5 103.5  C 1003.5 95.66  1009.66 89.5  1017.5 89.5  Z " stroke-width="1" stroke="#797979" fill="none" />
  </g>
</svg>