<?xml version="1.0" encoding="utf-8"?>
<svg version="1.1" xmlns:xlink="http://www.w3.org/1999/xlink" width="35px" height="35px" xmlns="http://www.w3.org/2000/svg">
  <g transform="matrix(1 0 0 1 -1133 -105 )">
    <path d="M 1150.5 105  C 1160.3 105  1168 112.7  1168 122.5  C 1168 132.3  1160.3 140  1150.5 140  C 1140.7 140  1133 132.3  1133 122.5  C 1133 112.7  1140.7 105  1150.5 105  Z " fill-rule="nonzero" fill="#ffffff" stroke="none" />
    <path d="M 1150.5 105.5  C 1160.02 105.5  1167.5 112.98  1167.5 122.5  C 1167.5 132.02  1160.02 139.5  1150.5 139.5  C 1140.98 139.5  1133.5 132.02  1133.5 122.5  C 1133.5 112.98  1140.98 105.5  1150.5 105.5  Z " stroke-width="1" stroke="#797979" fill="none" />
  </g>
</svg>