<?xml version="1.0" encoding="utf-8"?>
<svg version="1.1" xmlns:xlink="http://www.w3.org/1999/xlink" width="121px" height="170px" xmlns="http://www.w3.org/2000/svg">
  <g transform="matrix(1 0 0 1 -622 -429 )">
    <path d="M 682.5 429  C 716.38 429  743 466.4  743 514  C 743 561.6  716.38 599  682.5 599  C 648.62 599  622 561.6  622 514  C 622 466.4  648.62 429  682.5 429  Z " fill-rule="nonzero" fill="#ffffff" stroke="none" />
    <path d="M 682.5 429.5  C 716.1 429.5  742.5 466.68  742.5 514  C 742.5 561.3199999999999  716.1 598.5  682.5 598.5  C 648.9 598.5  622.5 561.3199999999999  622.5 514  C 622.5 466.68  648.9 429.5  682.5 429.5  Z " stroke-width="1" stroke="#797979" fill="none" />
  </g>
</svg>