<?xml version="1.0" encoding="utf-8"?>
<svg version="1.1" xmlns:xlink="http://www.w3.org/1999/xlink" width="28px" height="16px" xmlns="http://www.w3.org/2000/svg">
  <g transform="matrix(1 0 0 1 -359 -272 )">
    <path d="M 27.48046875 0.5277777777777786  C 27.826822916666668 0.879629629629628  28 1.2962962962962923  28 1.7777777777777786  C 28 2.2592592592592577  27.826822916666668 2.675925925925924  27.48046875 3.0277777777777786  L 15.23046875 15.472222222222221  C 14.884114583333334 15.824074074074076  14.473958333333334 16  14 16  C 13.526041666666668 16  13.115885416666668 15.824074074074076  12.76953125 15.472222222222221  L 0.51953125 3.0277777777777786  C 0.17317708333333331 2.675925925925924  0 2.2592592592592577  0 1.7777777777777786  C 0 1.2962962962962923  0.17317708333333331 0.879629629629628  0.51953125 0.5277777777777786  C 0.8658854166666667 0.17592592592592382  1.2760416666666667 0  1.75 0  L 26.25 0  C 26.723958333333336 0  27.134114583333336 0.17592592592592382  27.48046875 0.5277777777777786  Z " fill-rule="nonzero" fill="#ffffff" stroke="none" transform="matrix(1 0 0 1 359 272 )" />
  </g>
</svg>