<?xml version="1.0" encoding="utf-8"?>
<svg version="1.1" xmlns:xlink="http://www.w3.org/1999/xlink" width="400px" height="400px" xmlns="http://www.w3.org/2000/svg">
  <g transform="matrix(1 0 0 1 0 -1098 )">
    <path d="M 200 1098  C 312 1098  400 1186  400 1298  C 400 1410  312 1498  200 1498  C 87.99999999999999 1498  0 1410  0 1298  C 0 1186  87.99999999999999 1098  200 1098  Z " fill-rule="nonzero" fill="#f2f2f2" stroke="none" />
    <path d="M 200 1098.5  C 311.72 1098.5  399.5 1186.28  399.5 1298  C 399.5 1409.72  311.72 1497.5  200 1497.5  C 88.27999999999999 1497.5  0.5 1409.72  0.5 1298  C 0.5 1186.28  88.27999999999999 1098.5  200 1098.5  Z " stroke-width="1" stroke="#797979" fill="none" />
  </g>
</svg>