<?xml version="1.0" encoding="utf-8"?>
<svg version="1.1" xmlns:xlink="http://www.w3.org/1999/xlink" width="15px" height="15px" xmlns="http://www.w3.org/2000/svg">
  <g transform="matrix(1 0 0 1 -170 -1385 )">
    <path d="M 177.5 1385  C 181.7 1385  185 1388.3  185 1392.5  C 185 1396.7  181.7 1400  177.5 1400  C 173.3 1400  170 1396.7  170 1392.5  C 170 1388.3  173.3 1385  177.5 1385  Z " fill-rule="nonzero" fill="#aaaaaa" stroke="none" />
    <path d="M 177.5 1385.5  C 181.42 1385.5  184.5 1388.58  184.5 1392.5  C 184.5 1396.42  181.42 1399.5  177.5 1399.5  C 173.58 1399.5  170.5 1396.42  170.5 1392.5  C 170.5 1388.58  173.58 1385.5  177.5 1385.5  Z " stroke-width="1" stroke="#797979" fill="none" />
  </g>
</svg>