<?xml version="1.0" encoding="utf-8"?>
<svg version="1.1" xmlns:xlink="http://www.w3.org/1999/xlink" width="15px" height="15px" xmlns="http://www.w3.org/2000/svg">
  <g transform="matrix(1 0 0 1 -146 -1385 )">
    <path d="M 153.5 1385  C 157.7 1385  161 1388.3  161 1392.5  C 161 1396.7  157.7 1400  153.5 1400  C 149.3 1400  146 1396.7  146 1392.5  C 146 1388.3  149.3 1385  153.5 1385  Z " fill-rule="nonzero" fill="#ffffff" stroke="none" />
    <path d="M 153.5 1385.5  C 157.42 1385.5  160.5 1388.58  160.5 1392.5  C 160.5 1396.42  157.42 1399.5  153.5 1399.5  C 149.58 1399.5  146.5 1396.42  146.5 1392.5  C 146.5 1388.58  149.58 1385.5  153.5 1385.5  Z " stroke-width="1" stroke="#797979" fill="none" />
  </g>
</svg>