<?xml version="1.0" encoding="utf-8"?>
<svg version="1.1" xmlns:xlink="http://www.w3.org/1999/xlink" width="29px" height="29px" xmlns="http://www.w3.org/2000/svg">
  <g transform="matrix(1 0 0 1 -275 -425 )">
    <path d="M 5.4375 0  L 23.5625 0  C 25.060329861111114 0  26.341037326388893 0.5317925347222204  27.404622395833332 1.5953776041666679  C 28.468207465277775 2.6589626736111085  29 3.939670138888885  29 5.4375  L 29 23.5625  C 29 25.060329861111107  28.468207465277775 26.341037326388893  27.404622395833332 27.404622395833332  C 26.341037326388893 28.468207465277775  25.060329861111114 29  23.5625 29  L 20 29  L 20 17.766276041666664  L 23.770182291666668 17.766276041666664  L 24.336588541666668 13.386067708333332  L 20.013020833333332 13.386067708333332  L 20.013020833333332 10.591796875  C 20.013020833333332 9.886935763888886  20.160915798611114 9.358289930555554  20.456705729166668 9.005859375  C 20.752495659722225 8.653428819444445  21.328342013888893 8.477213541666668  22.184244791666668 8.477213541666668  L 24.487630208333332 8.458333333333332  L 24.487630208333332 4.550130208333332  C 23.694661458333332 4.436848958333332  22.574435763888893 4.380208333333332  21.126953125 4.380208333333332  C 19.415147569444446 4.380208333333332  18.04633246527778 4.883680555555553  17.0205078125 5.890625  C 15.994683159722223 6.897569444444444  15.481770833333332 8.31987847222222  15.481770833333332 10.157552083333332  L 15.481770833333332 13.386067708333332  L 11.705729166666666 13.386067708333332  L 11.705729166666666 17.766276041666664  L 15 17.766276041666664  L 15 29  L 5.4375 29  C 3.939670138888889 29  2.6589626736111116 28.468207465277775  1.5953776041666667 27.404622395833332  C 0.5317925347222221 26.341037326388893  0 25.060329861111107  0 23.5625  L 0 5.4375  C 0 3.939670138888885  0.5317925347222221 2.6589626736111085  1.5953776041666667 1.5953776041666679  C 2.6589626736111116 0.5317925347222204  3.939670138888889 0  5.4375 0  Z " fill-rule="nonzero" fill="#000000" stroke="none" transform="matrix(1 0 0 1 275 425 )" />
  </g>
</svg>