<?xml version="1.0" encoding="utf-8"?>
<svg version="1.1" xmlns:xlink="http://www.w3.org/1999/xlink" width="29px" height="29px" xmlns="http://www.w3.org/2000/svg">
  <g transform="matrix(1 0 0 1 -359 -425 )">
    <path d="M 22.184244791666668 11.158203125  C 22.977213541666668 10.591796875  23.638020833333332 9.90581597222222  24.166666666666668 9.100260416666668  C 23.461805555555557 9.414930555555554  22.700303819444446 9.62890625  21.882161458333332 9.7421875  C 22.738064236111114 9.238715277777777  23.323350694444446 8.502387152777777  23.638020833333332 7.533203125  C 22.819878472222225 8.011501736111109  21.9765625 8.332465277777777  21.108072916666668 8.49609375  C 20.34027777777778 7.665364583333332  19.37738715277778 7.25  18.219401041666668 7.25  C 17.124348958333332 7.25  16.189778645833332 7.637044270833332  15.415690104166668 8.4111328125  C 14.6416015625 9.185221354166668  14.254557291666666 10.119791666666668  14.254557291666666 11.21484375  C 14.254557291666666 11.579861111111109  14.286024305555557 11.881944444444445  14.348958333333334 12.12109375  C 12.725260416666666 12.032986111111109  11.202256944444446 11.623914930555555  9.779947916666666 10.893880208333332  C 8.35763888888889 10.163845486111109  7.149305555555557 9.188368055555554  6.154947916666667 7.967447916666668  C 5.789930555555556 8.596788194444445  5.607421875 9.263888888888886  5.607421875 9.96875  C 5.607421875 11.403645833333332  6.180121527777779 12.504991319444445  7.325520833333334 13.272786458333332  C 6.733940972222223 13.260199652777777  6.104600694444445 13.096571180555555  5.4375 12.781901041666668  L 5.4375 12.819661458333332  C 5.4375 13.763671875  5.752170138888889 14.603841145833336  6.381510416666667 15.340169270833336  C 7.010850694444445 16.076497395833336  7.784939236111112 16.532769097222225  8.703776041666666 16.708984375  C 8.338758680555557 16.80967881944444  8.01779513888889 16.860026041666664  7.740885416666666 16.860026041666664  C 7.5772569444444455 16.860026041666664  7.331814236111112 16.834852430555554  7.004557291666667 16.784505208333336  C 7.268880208333334 17.577473958333336  7.737738715277778 18.231987847222218  8.4111328125 18.748046875  C 9.084526909722221 19.264105902777775  9.849175347222223 19.52842881944444  10.705078125 19.541015625  C 9.245008680555555 20.673828125  7.602430555555556 21.240234375  5.77734375 21.240234375  C 5.450086805555556 21.240234375  5.135416666666667 21.221354166666664  4.833333333333333 21.18359375  C 6.696180555555556 22.366753472222225  8.72265625 22.958333333333332  10.912760416666666 22.958333333333332  C 12.32248263888889 22.958333333333332  13.644097222222223 22.734917534722225  14.877604166666668 22.2880859375  C 16.11111111111111 21.841254340277775  17.16840277777778 21.24338107638889  18.049479166666668 20.494466145833336  C 18.930555555555557 19.745551215277775  19.68891059027778 18.883355034722218  20.324544270833332 17.907877604166664  C 20.960177951388893 16.93240017361111  21.432183159722225 15.912868923611112  21.740559895833332 14.849283854166664  C 22.048936631944446 13.78569878472222  22.203125 12.725260416666668  22.203125 11.66796875  C 22.203125 11.44140625  22.196831597222225 11.271484375  22.184244791666668 11.158203125  Z M 27.404622395833332 1.5953776041666679  C 28.468207465277775 2.6589626736111085  29 3.939670138888885  29 5.4375  L 29 23.5625  C 29 25.060329861111107  28.468207465277775 26.341037326388893  27.404622395833332 27.404622395833332  C 26.341037326388893 28.468207465277775  25.060329861111114 29  23.5625 29  L 5.4375 29  C 3.939670138888889 29  2.6589626736111116 28.468207465277775  1.5953776041666667 27.404622395833332  C 0.5317925347222221 26.341037326388893  0 25.060329861111107  0 23.5625  L 0 5.4375  C 0 3.939670138888885  0.5317925347222221 2.6589626736111085  1.5953776041666667 1.5953776041666679  C 2.6589626736111116 0.5317925347222204  3.939670138888889 0  5.4375 0  L 23.5625 0  C 25.060329861111114 0  26.341037326388893 0.5317925347222204  27.404622395833332 1.5953776041666679  Z " fill-rule="nonzero" fill="#000000" stroke="none" transform="matrix(1 0 0 1 359 425 )" />
  </g>
</svg>