<?xml version="1.0" encoding="utf-8"?>
<svg version="1.1" xmlns:xlink="http://www.w3.org/1999/xlink" width="29px" height="29px" xmlns="http://www.w3.org/2000/svg">
  <g transform="matrix(1 0 0 1 -317 -425 )">
    <path d="M 17.917317708333332 17.917317708333336  C 18.861328125 16.973307291666664  19.333333333333332 15.834201388888888  19.333333333333332 14.5  C 19.333333333333332 13.165798611111109  18.861328125 12.026692708333332  17.917317708333332 11.082682291666668  C 16.973307291666668 10.138671875  15.834201388888891 9.666666666666668  14.5 9.666666666666668  C 13.165798611111112 9.666666666666668  12.026692708333334 10.138671875  11.082682291666666 11.082682291666668  C 10.138671875 12.026692708333332  9.666666666666666 13.165798611111109  9.666666666666666 14.5  C 9.666666666666666 15.834201388888888  10.138671875 16.973307291666664  11.082682291666666 17.917317708333336  C 12.026692708333334 18.861328125  13.165798611111112 19.333333333333336  14.5 19.333333333333336  C 15.834201388888891 19.333333333333336  16.973307291666668 18.861328125  17.917317708333332 17.917317708333336  Z M 19.767578125 9.232421875  C 21.215060763888893 10.679904513888886  21.938802083333332 12.435763888888886  21.938802083333332 14.5  C 21.938802083333332 16.56423611111111  21.215060763888893 18.32009548611111  19.767578125 19.767578125  C 18.32009548611111 21.21506076388889  16.56423611111111 21.938802083333332  14.5 21.938802083333332  C 12.43576388888889 21.938802083333332  10.67990451388889 21.21506076388889  9.232421875 19.767578125  C 7.784939236111112 18.32009548611111  7.061197916666667 16.56423611111111  7.061197916666667 14.5  C 7.061197916666667 12.435763888888886  7.784939236111112 10.679904513888886  9.232421875 9.232421875  C 10.67990451388889 7.784939236111109  12.43576388888889 7.061197916666668  14.5 7.061197916666668  C 16.56423611111111 7.061197916666668  18.32009548611111 7.784939236111109  19.767578125 9.232421875  Z M 23.468098958333332 5.531901041666668  C 23.807942708333332 5.871744791666668  23.977864583333332 6.2808159722222205  23.977864583333332 6.759114583333332  C 23.977864583333332 7.237413194444444  23.807942708333332 7.646484375  23.468098958333332 7.986328125  C 23.128255208333332 8.326171875  22.71918402777778 8.49609375  22.240885416666668 8.49609375  C 21.762586805555557 8.49609375  21.353515625 8.326171875  21.013671875 7.986328125  C 20.673828125 7.646484375  20.50390625 7.237413194444444  20.50390625 6.759114583333332  C 20.50390625 6.2808159722222205  20.673828125 5.871744791666668  21.013671875 5.531901041666668  C 21.353515625 5.192057291666668  21.762586805555557 5.022135416666668  22.240885416666668 5.022135416666668  C 22.71918402777778 5.022135416666668  23.128255208333332 5.192057291666668  23.468098958333332 5.531901041666668  Z M 15.9443359375 2.596028645833332  C 15.069552951388891 2.6023220486111085  14.588107638888891 2.60546875  14.5 2.60546875  C 14.411892361111112 2.60546875  13.930447048611112 2.6023220486111085  13.0556640625 2.596028645833332  C 12.18088107638889 2.5897352430555527  11.516927083333334 2.5897352430555527  11.063802083333334 2.596028645833332  C 10.610677083333334 2.6023220486111085  10.003363715277779 2.621202256944444  9.241861979166666 2.652669270833332  C 8.480360243055557 2.6841362847222205  7.8321397569444455 2.7470703125  7.297200520833334 2.841471354166668  C 6.762261284722223 2.935872395833332  6.312282986111112 3.0523003472222205  5.947265625 3.190755208333332  C 5.317925347222223 3.442491319444444  4.764105902777778 3.8075086805555527  4.285807291666667 4.285807291666668  C 3.807508680555556 4.764105902777777  3.4424913194444446 5.3179253472222205  3.1907552083333335 5.947265625  C 3.0523003472222223 6.312282986111109  2.9358723958333335 6.7622612847222205  2.8414713541666665 7.297200520833332  C 2.7470703125 7.832139756944444  2.6841362847222223 8.480360243055554  2.6526692708333335 9.241861979166668  C 2.6212022569444446 10.003363715277777  2.6023220486111116 10.610677083333332  2.5960286458333335 11.063802083333332  C 2.589735243055556 11.516927083333332  2.589735243055556 12.180881076388886  2.5960286458333335 13.0556640625  C 2.6023220486111116 13.930447048611109  2.60546875 14.411892361111109  2.60546875 14.5  C 2.60546875 14.588107638888888  2.6023220486111116 15.069552951388888  2.5960286458333335 15.9443359375  C 2.589735243055556 16.81911892361111  2.589735243055556 17.483072916666664  2.5960286458333335 17.936197916666664  C 2.6023220486111116 18.389322916666664  2.6212022569444446 18.996636284722218  2.6526692708333335 19.758138020833336  C 2.6841362847222223 20.51963975694444  2.7470703125 21.167860243055554  2.8414713541666665 21.702799479166664  C 2.9358723958333335 22.237738715277775  3.0523003472222223 22.687717013888886  3.1907552083333335 23.052734375  C 3.4424913194444446 23.682074652777775  3.807508680555556 24.235894097222225  4.285807291666667 24.714192708333332  C 4.764105902777778 25.192491319444443  5.317925347222223 25.557508680555557  5.947265625 25.809244791666668  C 6.312282986111112 25.947699652777775  6.762261284722223 26.064127604166668  7.297200520833334 26.158528645833332  C 7.8321397569444455 26.2529296875  8.480360243055557 26.315863715277775  9.241861979166666 26.347330729166668  C 10.003363715277779 26.378797743055557  10.610677083333334 26.397677951388893  11.063802083333334 26.403971354166668  C 11.516927083333334 26.410264756944443  12.18088107638889 26.410264756944443  13.0556640625 26.403971354166668  C 13.930447048611112 26.397677951388893  14.411892361111112 26.39453125  14.5 26.39453125  C 14.588107638888891 26.39453125  15.069552951388891 26.397677951388893  15.9443359375 26.403971354166668  C 16.81911892361111 26.410264756944443  17.483072916666668 26.410264756944443  17.936197916666668 26.403971354166668  C 18.389322916666668 26.397677951388893  18.996636284722225 26.378797743055557  19.758138020833332 26.347330729166668  C 20.519639756944446 26.315863715277775  21.167860243055557 26.2529296875  21.702799479166668 26.158528645833332  C 22.23773871527778 26.064127604166668  22.687717013888893 25.947699652777775  23.052734375 25.809244791666668  C 23.68207465277778 25.557508680555557  24.235894097222225 25.192491319444443  24.714192708333332 24.714192708333332  C 25.192491319444446 24.235894097222225  25.557508680555557 23.682074652777775  25.809244791666668 23.052734375  C 25.94769965277778 22.687717013888886  26.064127604166668 22.237738715277775  26.158528645833332 21.702799479166664  C 26.2529296875 21.167860243055554  26.31586371527778 20.51963975694444  26.347330729166668 19.758138020833336  C 26.378797743055557 18.996636284722218  26.397677951388893 18.389322916666664  26.403971354166668 17.936197916666664  C 26.410264756944446 17.483072916666664  26.410264756944446 16.81911892361111  26.403971354166668 15.9443359375  C 26.397677951388893 15.069552951388888  26.39453125 14.588107638888888  26.39453125 14.5  C 26.39453125 14.411892361111109  26.397677951388893 13.930447048611109  26.403971354166668 13.0556640625  C 26.410264756944446 12.180881076388886  26.410264756944446 11.516927083333332  26.403971354166668 11.063802083333332  C 26.397677951388893 10.610677083333332  26.378797743055557 10.003363715277777  26.347330729166668 9.241861979166668  C 26.31586371527778 8.480360243055554  26.2529296875 7.832139756944444  26.158528645833332 7.297200520833332  C 26.064127604166668 6.7622612847222205  25.94769965277778 6.312282986111109  25.809244791666668 5.947265625  C 25.557508680555557 5.3179253472222205  25.192491319444446 4.764105902777777  24.714192708333332 4.285807291666668  C 24.235894097222225 3.8075086805555527  23.68207465277778 3.442491319444444  23.052734375 3.190755208333332  C 22.687717013888893 3.0523003472222205  22.23773871527778 2.935872395833332  21.702799479166668 2.841471354166668  C 21.167860243055557 2.7470703125  20.519639756944446 2.6841362847222205  19.758138020833332 2.652669270833332  C 18.996636284722225 2.621202256944444  18.389322916666668 2.6023220486111085  17.936197916666668 2.596028645833332  C 17.483072916666668 2.5897352430555527  16.81911892361111 2.5897352430555527  15.9443359375 2.596028645833332  Z M 28.905598958333332 8.514973958333332  C 28.968532986111107 9.62261284722222  29 11.617621527777777  29 14.5  C 29 17.382378472222225  28.968532986111107 19.377387152777775  28.905598958333332 20.485026041666664  C 28.77973090277778 23.103081597222225  27.999348958333332 25.129557291666668  26.564453125 26.564453125  C 25.129557291666668 27.999348958333332  23.103081597222225 28.779730902777775  20.485026041666668 28.905598958333332  C 19.37738715277778 28.968532986111107  17.382378472222225 29  14.5 29  C 11.617621527777779 29  9.622612847222221 28.968532986111107  8.514973958333334 28.905598958333332  C 5.896918402777779 28.779730902777775  3.870442708333334 27.999348958333332  2.435546875 26.564453125  C 1.0006510416666667 25.129557291666668  0.22026909722222224 23.103081597222225  0.09440104166666667 20.485026041666664  C 0.03146701388888888 19.377387152777775  0 17.382378472222225  0 14.5  C 0 11.617621527777777  0.03146701388888888 9.62261284722222  0.09440104166666667 8.514973958333332  C 0.22026909722222224 5.896918402777777  1.0006510416666667 3.870442708333332  2.435546875 2.435546875  C 3.870442708333334 1.0006510416666679  5.896918402777779 0.22026909722222043  8.514973958333334 0.09440104166666774  C 9.622612847222221 0.031467013888884954  11.617621527777779 0  14.5 0  C 17.382378472222225 0  19.37738715277778 0.031467013888884954  20.485026041666668 0.09440104166666774  C 23.103081597222225 0.22026909722222043  25.129557291666668 1.0006510416666679  26.564453125 2.435546875  C 27.999348958333332 3.870442708333332  28.77973090277778 5.896918402777777  28.905598958333332 8.514973958333332  Z " fill-rule="nonzero" fill="#000000" stroke="none" transform="matrix(1 0 0 1 317 425 )" />
  </g>
</svg>