<?xml version="1.0" encoding="utf-8"?>
<svg version="1.1" xmlns:xlink="http://www.w3.org/1999/xlink" width="22px" height="12px" xmlns="http://www.w3.org/2000/svg">
  <g transform="matrix(1 0 0 1 -362 -265 )">
    <path d="M 21.591796875 0.3958333333333339  C 21.863932291666668 0.6597222222222197  22 0.9722222222222192  22 1.333333333333334  C 22 1.6944444444444433  21.863932291666668 2.006944444444443  21.591796875 2.270833333333334  L 11.966796875 11.604166666666666  C 11.694661458333334 11.868055555555552  11.372395833333334 12  11 12  C 10.627604166666668 12  10.305338541666668 11.868055555555552  10.033203125 11.604166666666666  L 0.408203125 2.270833333333334  C 0.13606770833333331 2.006944444444443  0 1.6944444444444433  0 1.333333333333334  C 0 0.9722222222222192  0.13606770833333331 0.6597222222222197  0.408203125 0.3958333333333339  C 0.6803385416666667 0.13194444444444287  1.0026041666666667 0  1.375 0  L 20.625 0  C 20.997395833333336 0  21.319661458333336 0.13194444444444287  21.591796875 0.3958333333333339  Z " fill-rule="nonzero" fill="#ffffff" stroke="none" transform="matrix(1 0 0 1 362 265 )" />
  </g>
</svg>