<?xml version="1.0" encoding="utf-8"?>
<svg version="1.1" xmlns:xlink="http://www.w3.org/1999/xlink" width="170px" height="233px" xmlns="http://www.w3.org/2000/svg">
  <g transform="matrix(1 0 0 1 -559 -291 )">
    <path d="M 644 291  C 691.6 291  729 342.26  729 407.5  C 729 472.74  691.6 524  644 524  C 596.4 524  559 472.74  559 407.5  C 559 342.26  596.4 291  644 291  Z " fill-rule="nonzero" fill="#ffffff" stroke="none" />
    <path d="M 644 291.5  C 691.3199999999999 291.5  728.5 342.53999999999996  728.5 407.5  C 728.5 472.46000000000004  691.3199999999999 523.5  644 523.5  C 596.68 523.5  559.5 472.46000000000004  559.5 407.5  C 559.5 342.53999999999996  596.68 291.5  644 291.5  Z " stroke-width="1" stroke="#797979" fill="none" />
  </g>
</svg>