<?xml version="1.0" encoding="utf-8"?>
<svg version="1.1" xmlns:xlink="http://www.w3.org/1999/xlink" width="509px" height="509px" xmlns="http://www.w3.org/2000/svg">
  <g transform="matrix(1 0 0 1 -407 -1544 )">
    <path d="M 661.5 1544  C 804.02 1544  916 1655.98  916 1798.5  C 916 1941.02  804.02 2053  661.5 2053  C 518.98 2053  407 1941.02  407 1798.5  C 407 1655.98  518.98 1544  661.5 1544  Z " fill-rule="nonzero" fill="#f2f2f2" stroke="none" />
    <path d="M 661.5 1544.5  C 803.74 1544.5  915.5 1656.26  915.5 1798.5  C 915.5 1940.74  803.74 2052.5  661.5 2052.5  C 519.26 2052.5  407.5 1940.74  407.5 1798.5  C 407.5 1656.26  519.26 1544.5  661.5 1544.5  Z " stroke-width="1" stroke="#797979" fill="none" />
  </g>
</svg>