<?xml version="1.0" encoding="utf-8"?>
<svg version="1.1" xmlns:xlink="http://www.w3.org/1999/xlink" width="43px" height="43px" xmlns="http://www.w3.org/2000/svg">
  <g transform="matrix(1 0 0 1 -1233 -395 )">
    <path d="M 8.0625 0  L 34.9375 0  C 37.15842013888889 0  39.057400173611114 0.7885199652777751  40.634440104166664 2.365559895833335  C 42.21148003472222 3.9425998263888853  43 5.841579861111105  43 8.0625  L 43 34.9375  C 43 37.158420138888886  42.21148003472222 39.057400173611114  40.634440104166664 40.634440104166664  C 39.057400173611114 42.21148003472222  37.15842013888889 43  34.9375 43  L 29 43  L 29 26.34309895833333  L 35.245442708333336 26.34309895833333  L 36.085286458333336 19.848307291666664  L 29.674479166666664 19.848307291666664  L 29.674479166666664 15.705078125  C 29.674479166666664 14.659939236111105  29.893771701388896 13.87608506944444  30.332356770833336 13.353515625  C 30.77094184027778 12.830946180555555  31.624782986111114 12.569661458333336  32.893880208333336 12.569661458333336  L 36.309244791666664 12.541666666666664  L 36.309244791666664 6.746744791666665  C 35.133463541666664 6.578776041666665  33.472439236111114 6.494791666666665  31.326171875 6.494791666666665  C 28.78797743055556 6.494791666666665  26.758355034722225 7.24131944444444  25.2373046875 8.734375  C 23.71625434027778 10.227430555555555  22.955729166666664 12.336371527777775  22.955729166666664 15.061197916666664  L 22.955729166666664 19.848307291666664  L 17.356770833333332 19.848307291666664  L 17.356770833333332 26.34309895833333  L 23 26.34309895833333  L 23 43  L 8.0625 43  C 5.841579861111112 43  3.9425998263888893 42.21148003472222  2.3655598958333335 40.634440104166664  C 0.7885199652777777 39.057400173611114  0 37.158420138888886  0 34.9375  L 0 8.0625  C 0 5.841579861111105  0.7885199652777777 3.9425998263888853  2.3655598958333335 2.365559895833335  C 3.9425998263888893 0.7885199652777751  5.841579861111112 0  8.0625 0  Z " fill-rule="nonzero" fill="#000000" stroke="none" transform="matrix(1 0 0 1 1233 395 )" />
  </g>
</svg>