<?xml version="1.0" encoding="utf-8"?>
<svg version="1.1" xmlns:xlink="http://www.w3.org/1999/xlink" width="43px" height="43px" xmlns="http://www.w3.org/2000/svg">
  <g transform="matrix(1 0 0 1 -1233 -459 )">
    <path d="M 26.567057291666664 26.56705729166667  C 27.966796875 25.16731770833333  28.666666666666664 23.47829861111111  28.666666666666664 21.5  C 28.666666666666664 19.521701388888886  27.966796875 17.832682291666664  26.567057291666664 16.432942708333336  C 25.167317708333336 15.033203125  23.478298611111114 14.333333333333336  21.5 14.333333333333336  C 19.52170138888889 14.333333333333336  17.832682291666668 15.033203125  16.432942708333332 16.432942708333336  C 15.033203125 17.832682291666664  14.333333333333332 19.521701388888886  14.333333333333332 21.5  C 14.333333333333332 23.47829861111111  15.033203125 25.16731770833333  16.432942708333332 26.56705729166667  C 17.832682291666668 27.966796875  19.52170138888889 28.66666666666667  21.5 28.66666666666667  C 23.478298611111114 28.66666666666667  25.167317708333336 27.966796875  26.567057291666664 26.56705729166667  Z M 29.310546875 13.689453125  C 31.456814236111114 15.835720486111105  32.529947916666664 18.439236111111104  32.529947916666664 21.5  C 32.529947916666664 24.56076388888889  31.456814236111114 27.16427951388889  29.310546875 29.310546875  C 27.16427951388889 31.45681423611111  24.56076388888889 32.529947916666664  21.5 32.529947916666664  C 18.43923611111111 32.529947916666664  15.835720486111112 31.45681423611111  13.689453125 29.310546875  C 11.54318576388889 27.16427951388889  10.470052083333334 24.56076388888889  10.470052083333334 21.5  C 10.470052083333334 18.439236111111104  11.54318576388889 15.835720486111105  13.689453125 13.689453125  C 15.835720486111112 11.543185763888886  18.43923611111111 10.470052083333336  21.5 10.470052083333336  C 24.56076388888889 10.470052083333336  27.16427951388889 11.543185763888886  29.310546875 13.689453125  Z M 34.797526041666664 8.202473958333336  C 35.301432291666664 8.706380208333336  35.553385416666664 9.312934027777775  35.553385416666664 10.022135416666664  C 35.553385416666664 10.731336805555555  35.301432291666664 11.337890625  34.797526041666664 11.841796875  C 34.293619791666664 12.345703125  33.68706597222222 12.59765625  32.977864583333336 12.59765625  C 32.26866319444444 12.59765625  31.662109375 12.345703125  31.158203125 11.841796875  C 30.654296875 11.337890625  30.40234375 10.731336805555555  30.40234375 10.022135416666664  C 30.40234375 9.312934027777775  30.654296875 8.706380208333336  31.158203125 8.202473958333336  C 31.662109375 7.698567708333335  32.26866319444444 7.446614583333335  32.977864583333336 7.446614583333335  C 33.68706597222222 7.446614583333335  34.293619791666664 7.698567708333335  34.797526041666664 8.202473958333336  Z M 23.6416015625 3.849283854166665  C 22.344509548611114 3.8586154513888853  21.630642361111114 3.86328125  21.5 3.86328125  C 21.36935763888889 3.86328125  20.65549045138889 3.8586154513888853  19.3583984375 3.849283854166665  C 18.06130642361111 3.83995225694444  17.076822916666668 3.83995225694444  16.404947916666668 3.849283854166665  C 15.733072916666668 3.8586154513888853  14.832573784722223 3.886610243055555  13.703450520833332 3.933268229166665  C 12.574327256944448 3.979926215277775  11.613172743055557 4.0732421875  10.819986979166668 4.213216145833335  C 10.026801215277779 4.353190104166665  9.35959201388889 4.525824652777775  8.818359375 4.731119791666665  C 7.885199652777779 5.104383680555555  7.064019097222222 5.64561631944444  6.354817708333334 6.354817708333335  C 5.645616319444445 7.06401909722222  5.104383680555555 7.885199652777775  4.731119791666667 8.818359375  C 4.525824652777778 9.359592013888886  4.353190104166667 10.026801215277775  4.213216145833333 10.819986979166664  C 4.0732421875 11.613172743055555  3.979926215277778 12.57432725694444  3.933268229166667 13.703450520833336  C 3.886610243055556 14.83257378472222  3.8586154513888893 15.733072916666664  3.849283854166667 16.404947916666664  C 3.839952256944445 17.076822916666664  3.839952256944445 18.061306423611104  3.849283854166667 19.3583984375  C 3.8586154513888893 20.655490451388886  3.86328125 21.369357638888886  3.86328125 21.5  C 3.86328125 21.63064236111111  3.8586154513888893 22.34450954861111  3.849283854166667 23.6416015625  C 3.839952256944445 24.93869357638889  3.839952256944445 25.92317708333333  3.849283854166667 26.59505208333333  C 3.8586154513888893 27.26692708333333  3.886610243055556 28.16742621527777  3.933268229166667 29.29654947916667  C 3.979926215277778 30.42567274305555  4.0732421875 31.38682725694444  4.213216145833333 32.18001302083333  C 4.353190104166667 32.97319878472222  4.525824652777778 33.64040798611111  4.731119791666667 34.181640625  C 5.104383680555555 35.11480034722222  5.645616319444445 35.93598090277778  6.354817708333334 36.645182291666664  C 7.064019097222222 37.35438368055556  7.885199652777779 37.89561631944444  8.818359375 38.268880208333336  C 9.35959201388889 38.47417534722222  10.026801215277779 38.646809895833336  10.819986979166668 38.786783854166664  C 11.613172743055557 38.9267578125  12.574327256944448 39.02007378472222  13.703450520833332 39.066731770833336  C 14.832573784722223 39.11338975694444  15.733072916666668 39.141384548611114  16.404947916666668 39.150716145833336  C 17.076822916666668 39.16004774305556  18.06130642361111 39.16004774305556  19.3583984375 39.150716145833336  C 20.65549045138889 39.141384548611114  21.36935763888889 39.13671875  21.5 39.13671875  C 21.630642361111114 39.13671875  22.344509548611114 39.141384548611114  23.6416015625 39.150716145833336  C 24.93869357638889 39.16004774305556  25.923177083333336 39.16004774305556  26.595052083333336 39.150716145833336  C 27.266927083333336 39.141384548611114  28.16742621527778 39.11338975694444  29.296549479166664 39.066731770833336  C 30.42567274305556 39.02007378472222  31.386827256944446 38.9267578125  32.180013020833336 38.786783854166664  C 32.97319878472222 38.646809895833336  33.640407986111114 38.47417534722222  34.181640625 38.268880208333336  C 35.11480034722222 37.89561631944444  35.93598090277778 37.35438368055556  36.645182291666664 36.645182291666664  C 37.35438368055556 35.93598090277778  37.89561631944444 35.11480034722222  38.268880208333336 34.181640625  C 38.47417534722222 33.64040798611111  38.646809895833336 32.97319878472222  38.786783854166664 32.18001302083333  C 38.9267578125 31.38682725694444  39.02007378472222 30.42567274305555  39.066731770833336 29.29654947916667  C 39.11338975694444 28.16742621527777  39.141384548611114 27.26692708333333  39.150716145833336 26.59505208333333  C 39.16004774305556 25.92317708333333  39.16004774305556 24.93869357638889  39.150716145833336 23.6416015625  C 39.141384548611114 22.34450954861111  39.13671875 21.63064236111111  39.13671875 21.5  C 39.13671875 21.369357638888886  39.141384548611114 20.655490451388886  39.150716145833336 19.3583984375  C 39.16004774305556 18.061306423611104  39.16004774305556 17.076822916666664  39.150716145833336 16.404947916666664  C 39.141384548611114 15.733072916666664  39.11338975694444 14.83257378472222  39.066731770833336 13.703450520833336  C 39.02007378472222 12.57432725694444  38.9267578125 11.613172743055555  38.786783854166664 10.819986979166664  C 38.646809895833336 10.026801215277775  38.47417534722222 9.359592013888886  38.268880208333336 8.818359375  C 37.89561631944444 7.885199652777775  37.35438368055556 7.06401909722222  36.645182291666664 6.354817708333335  C 35.93598090277778 5.64561631944444  35.11480034722222 5.104383680555555  34.181640625 4.731119791666665  C 33.640407986111114 4.525824652777775  32.97319878472222 4.353190104166665  32.180013020833336 4.213216145833335  C 31.386827256944446 4.0732421875  30.42567274305556 3.979926215277775  29.296549479166664 3.933268229166665  C 28.16742621527778 3.886610243055555  27.266927083333336 3.8586154513888853  26.595052083333336 3.849283854166665  C 25.923177083333336 3.83995225694444  24.93869357638889 3.83995225694444  23.6416015625 3.849283854166665  Z M 42.860026041666664 12.625651041666664  C 42.953342013888886 14.268012152777775  43 17.22612847222222  43 21.5  C 43 25.77387152777778  42.953342013888886 28.73198784722222  42.860026041666664 30.37434895833333  C 42.67339409722222 34.25629340277778  41.516276041666664 37.261067708333336  39.388671875 39.388671875  C 37.261067708333336 41.516276041666664  34.25629340277778 42.67339409722222  30.374348958333336 42.860026041666664  C 28.731987847222225 42.953342013888886  25.77387152777778 43  21.5 43  C 17.22612847222222 43  14.268012152777777 42.953342013888886  12.625651041666668 42.860026041666664  C 8.743706597222223 42.67339409722222  5.738932291666668 41.516276041666664  3.611328125 39.388671875  C 1.4837239583333335 37.261067708333336  0.3266059027777778 34.25629340277778  0.13997395833333334 30.37434895833333  C 0.046657986111111105 28.73198784722222  0 25.77387152777778  0 21.5  C 0 17.22612847222222  0.046657986111111105 14.268012152777775  0.13997395833333334 12.625651041666664  C 0.3266059027777778 8.74370659722222  1.4837239583333335 5.738932291666665  3.611328125 3.611328125  C 5.738932291666668 1.4837239583333348  8.743706597222223 0.3266059027777751  12.625651041666668 0.13997395833333492  C 14.268012152777777 0.046657986111105276  17.22612847222222 0  21.5 0  C 25.77387152777778 0  28.731987847222225 0.046657986111105276  30.374348958333336 0.13997395833333492  C 34.25629340277778 0.3266059027777751  37.261067708333336 1.4837239583333348  39.388671875 3.611328125  C 41.516276041666664 5.738932291666665  42.67339409722222 8.74370659722222  42.860026041666664 12.625651041666664  Z " fill-rule="nonzero" fill="#000000" stroke="none" transform="matrix(1 0 0 1 1233 459 )" />
  </g>
</svg>