<?xml version="1.0" encoding="utf-8"?>
<svg version="1.1" xmlns:xlink="http://www.w3.org/1999/xlink" width="43px" height="43px" xmlns="http://www.w3.org/2000/svg">
  <g transform="matrix(1 0 0 1 -1233 -524 )">
    <path d="M 32.893880208333336 16.544921875  C 34.069661458333336 15.705078125  35.049479166666664 14.687934027777775  35.833333333333336 13.493489583333336  C 34.78819444444444 13.96006944444444  33.65907118055556 14.27734375  32.445963541666664 14.4453125  C 33.71506076388889 13.69878472222222  34.58289930555556 12.60698784722222  35.049479166666664 11.169921875  C 33.83637152777778 11.879123263888886  32.5859375 12.35503472222222  31.298177083333336 12.59765625  C 30.159722222222225 11.365885416666664  28.731987847222225 10.75  27.014973958333336 10.75  C 25.391276041666664 10.75  24.005533854166664 11.323893229166664  22.857747395833336 12.4716796875  C 21.7099609375 13.619466145833336  21.136067708333332 15.005208333333336  21.136067708333332 16.62890625  C 21.136067708333332 17.170138888888886  21.182725694444446 17.618055555555554  21.276041666666668 17.97265625  C 18.868489583333332 17.842013888888886  16.610243055555557 17.235460069444446  14.501302083333332 16.152994791666664  C 12.392361111111112 15.070529513888886  10.600694444444446 13.62413194444444  9.126302083333334 11.813802083333336  C 8.585069444444445 12.746961805555555  8.314453125 13.736111111111105  8.314453125 14.78125  C 8.314453125 16.908854166666664  9.163628472222223 18.541883680555554  10.861979166666668 19.680338541666664  C 9.984809027777779 19.66167534722222  9.051649305555555 19.419053819444446  8.0625 18.952473958333336  L 8.0625 19.008463541666664  C 8.0625 20.408203125  8.52907986111111 21.65397135416667  9.462239583333334 22.74576822916667  C 10.395399305555555 23.83756510416667  11.54318576388889 24.51410590277778  12.905598958333332 24.775390625  C 12.364366319444448 24.92469618055555  11.888454861111112 24.99934895833333  11.477864583333332 24.99934895833333  C 11.235243055555557 24.99934895833333  10.87131076388889 24.96202256944444  10.386067708333334 24.88736979166667  C 10.777994791666668 26.06315104166667  11.473198784722223 27.03363715277777  12.4716796875 27.798828125  C 13.470160590277777 28.56401909722222  14.60394965277778 28.95594618055555  15.873046875 28.974609375  C 13.708116319444445 30.654296875  11.272569444444445 31.494140625  8.56640625 31.494140625  C 8.081163194444445 31.494140625  7.614583333333334 31.46614583333333  7.166666666666666 31.41015625  C 9.928819444444445 33.16449652777778  12.93359375 34.041666666666664  16.180989583333332 34.041666666666664  C 18.27126736111111 34.041666666666664  20.23090277777778 33.71039496527778  22.059895833333336 33.0478515625  C 23.88888888888889 32.38530815972222  25.456597222222225 31.49880642361111  26.763020833333336 30.38834635416667  C 28.069444444444446 29.27788628472222  29.193901909722225 27.99945746527777  30.136393229166664 26.55305989583333  C 31.078884548611114 25.10666232638889  31.77875434027778 23.59494357638889  32.236002604166664 22.01790364583333  C 32.69325086805556 20.440863715277775  32.921875 18.868489583333336  32.921875 17.30078125  C 32.921875 16.96484375  32.91254340277778 16.712890625  32.893880208333336 16.544921875  Z M 40.634440104166664 2.365559895833335  C 42.21148003472222 3.9425998263888853  43 5.841579861111105  43 8.0625  L 43 34.9375  C 43 37.158420138888886  42.21148003472222 39.057400173611114  40.634440104166664 40.634440104166664  C 39.057400173611114 42.21148003472222  37.15842013888889 43  34.9375 43  L 8.0625 43  C 5.841579861111112 43  3.9425998263888893 42.21148003472222  2.3655598958333335 40.634440104166664  C 0.7885199652777777 39.057400173611114  0 37.158420138888886  0 34.9375  L 0 8.0625  C 0 5.841579861111105  0.7885199652777777 3.9425998263888853  2.3655598958333335 2.365559895833335  C 3.9425998263888893 0.7885199652777751  5.841579861111112 0  8.0625 0  L 34.9375 0  C 37.15842013888889 0  39.057400173611114 0.7885199652777751  40.634440104166664 2.365559895833335  Z " fill-rule="nonzero" fill="#000000" stroke="none" transform="matrix(1 0 0 1 1233 524 )" />
  </g>
</svg>