<?xml version="1.0" encoding="utf-8"?>
<svg version="1.1" xmlns:xlink="http://www.w3.org/1999/xlink" width="18px" height="18px" xmlns="http://www.w3.org/2000/svg">
  <g transform="matrix(1 0 0 1 -188 -2486 )">
    <path d="M 197 2486  C 202.04 2486  206 2489.96  206 2495  C 206 2500.04  202.04 2504  197 2504  C 191.96 2504  188 2500.04  188 2495  C 188 2489.96  191.96 2486  197 2486  Z " fill-rule="nonzero" fill="#ffffff" stroke="none" />
    <path d="M 197 2486.5  C 201.76 2486.5  205.5 2490.24  205.5 2495  C 205.5 2499.76  201.76 2503.5  197 2503.5  C 192.24 2503.5  188.5 2499.76  188.5 2495  C 188.5 2490.24  192.24 2486.5  197 2486.5  Z " stroke-width="1" stroke="#797979" fill="none" />
  </g>
</svg>