<?xml version="1.0" encoding="utf-8"?>
<svg version="1.1" xmlns:xlink="http://www.w3.org/1999/xlink" width="9px" height="9px" xmlns="http://www.w3.org/2000/svg">
  <g transform="matrix(1 0 0 1 -217 -2357 )">
    <path d="M 221.5 2357  C 224.02 2357  226 2358.98  226 2361.5  C 226 2364.02  224.02 2366  221.5 2366  C 218.98 2366  217 2364.02  217 2361.5  C 217 2358.98  218.98 2357  221.5 2357  Z " fill-rule="nonzero" fill="#aaaaaa" stroke="none" />
    <path d="M 221.5 2357.5  C 223.74 2357.5  225.5 2359.26  225.5 2361.5  C 225.5 2363.74  223.74 2365.5  221.5 2365.5  C 219.26 2365.5  217.5 2363.74  217.5 2361.5  C 217.5 2359.26  219.26 2357.5  221.5 2357.5  Z " stroke-width="1" stroke="#797979" fill="none" />
  </g>
</svg>