<?xml version="1.0" encoding="utf-8"?>
<svg version="1.1" xmlns:xlink="http://www.w3.org/1999/xlink" width="509px" height="509px" xmlns="http://www.w3.org/2000/svg">
  <g transform="matrix(1 0 0 1 -395 -1415 )">
    <path d="M 649.5 1415  C 792.02 1415  904 1526.98  904 1669.5  C 904 1812.02  792.02 1924  649.5 1924  C 506.98 1924  395 1812.02  395 1669.5  C 395 1526.98  506.98 1415  649.5 1415  Z " fill-rule="nonzero" fill="#f2f2f2" stroke="none" />
    <path d="M 649.5 1415.5  C 791.74 1415.5  903.5 1527.26  903.5 1669.5  C 903.5 1811.74  791.74 1923.5  649.5 1923.5  C 507.26 1923.5  395.5 1811.74  395.5 1669.5  C 395.5 1527.26  507.26 1415.5  649.5 1415.5  Z " stroke-width="1" stroke="#797979" fill="none" />
  </g>
</svg>