<?xml version="1.0" encoding="utf-8"?>
<svg version="1.1" xmlns:xlink="http://www.w3.org/1999/xlink" width="23px" height="23px" xmlns="http://www.w3.org/2000/svg">
  <g transform="matrix(1 0 0 1 -167 -172 )">
    <path d="M 22.4833984375 13.558919270833336  C 22.578233506944446 13.653754340277779  22.625651041666668 13.766059027777779  22.625651041666668 13.895833333333336  C 22.625651041666668 13.945746527777779  22.620659722222225 13.980685763888886  22.610677083333332 14.000651041666664  C 21.971788194444446 16.675998263888886  20.634114583333332 18.8447265625  18.59765625 20.5068359375  C 16.561197916666668 22.1689453125  14.175347222222225 23  11.440104166666666 23  C 9.982638888888891 23  8.572591145833334 22.725477430555557  7.2099609375 22.176432291666668  C 5.847330729166666 21.627387152777775  4.6319444444444455 20.84375  3.563802083333333 19.825520833333332  L 1.6321614583333335 21.757161458333332  C 1.4424913194444446 21.946831597222225  1.2178819444444446 22.041666666666668  0.9583333333333333 22.041666666666668  C 0.6987847222222223 22.041666666666668  0.4741753472222222 21.946831597222225  0.2845052083333333 21.757161458333332  C 0.09483506944444445 21.567491319444443  0 21.342881944444443  0 21.083333333333332  L 0 14.375  C 0 14.115451388888886  0.09483506944444445 13.890842013888886  0.2845052083333333 13.701171875  C 0.4741753472222222 13.511501736111109  0.6987847222222223 13.416666666666664  0.9583333333333333 13.416666666666664  L 7.666666666666666 13.416666666666664  C 7.926215277777779 13.416666666666664  8.150824652777779 13.511501736111109  8.340494791666666 13.701171875  C 8.530164930555557 13.890842013888886  8.625 14.115451388888886  8.625 14.375  C 8.625 14.634548611111109  8.530164930555557 14.859157986111109  8.340494791666666 15.048828125  L 6.2890625 17.100260416666664  C 6.9978298611111125 17.759114583333332  7.801432291666666 18.268229166666668  8.699869791666666 18.627604166666668  C 9.598307291666666 18.986979166666668  10.531684027777779 19.166666666666668  11.5 19.166666666666668  C 12.83767361111111 19.166666666666668  14.085503472222225 18.842230902777775  15.243489583333332 18.193359375  C 16.401475694444446 17.544487847222218  17.329861111111114 16.651041666666664  18.028645833333332 15.513020833333336  C 18.138454861111114 15.343315972222221  18.402994791666668 14.759331597222221  18.822265625 13.761067708333336  C 18.902126736111114 13.531467013888886  19.051866319444446 13.416666666666664  19.271484375 13.416666666666664  L 22.146484375 13.416666666666664  C 22.276258680555557 13.416666666666664  22.388563368055557 13.464084201388886  22.4833984375 13.558919270833336  Z M 22.715494791666668 1.2428385416666674  C 22.905164930555554 1.432508680555554  23 1.657118055555554  23 1.9166666666666674  L 23 8.625  C 23 8.88454861111111  22.905164930555554 9.10915798611111  22.715494791666668 9.298828125  C 22.525824652777782 9.48849826388889  22.301215277777782 9.583333333333332  22.041666666666668 9.583333333333332  L 15.333333333333332 9.583333333333332  C 15.073784722222225 9.583333333333332  14.849175347222225 9.48849826388889  14.659505208333332 9.298828125  C 14.469835069444446 9.10915798611111  14.375000000000002 8.88454861111111  14.375 8.625  C 14.375000000000002 8.365451388888886  14.469835069444446 8.140842013888886  14.659505208333332 7.951171875  L 16.725911458333332 5.884765625  C 15.24848090277778 4.517144097222219  13.506510416666668 3.8333333333333326  11.5 3.8333333333333326  C 10.162326388888891 3.8333333333333326  8.914496527777779 4.157769097222219  7.756510416666666 4.806640625  C 6.598524305555557 5.455512152777776  5.67013888888889 6.348958333333332  4.971354166666667 7.486979166666668  C 4.861545138888889 7.656684027777776  4.597005208333333 8.240668402777775  4.177734375 9.238932291666668  C 4.097873263888889 9.46853298611111  3.9481336805555562 9.583333333333332  3.728515625 9.583333333333332  L 0.7486979166666667 9.583333333333332  C 0.618923611111111 9.583333333333332  0.5066189236111112 9.53591579861111  0.41178385416666663 9.441080729166668  C 0.31694878472222227 9.346245659722221  0.26953125 9.233940972222221  0.26953125 9.104166666666668  L 0.26953125 8.999348958333332  C 0.9184027777777779 6.324001736111111  2.266059027777778 4.1552734375  4.3125 2.4931640625  C 6.358940972222223 0.8310546875  8.754774305555557 0  11.5 0  C 12.957465277777779 0  14.375 0.2770182291666675  15.752604166666668 0.8310546875  C 17.130208333333332 1.3850911458333326  18.353081597222225 2.1662326388888866  19.421223958333332 3.1744791666666674  L 21.367838541666668 1.2428385416666674  C 21.557508680555557 1.053168402777776  21.782118055555557 0.9583333333333325  22.041666666666668 0.9583333333333325  C 22.301215277777782 0.9583333333333325  22.525824652777782 1.053168402777776  22.715494791666668 1.2428385416666674  Z " fill-rule="nonzero" fill="#ffffff" stroke="none" transform="matrix(1 0 0 1 167 172 )" />
  </g>
</svg>