<?xml version="1.0" encoding="utf-8"?>
<svg version="1.1" xmlns:xlink="http://www.w3.org/1999/xlink" width="11px" height="15px" xmlns="http://www.w3.org/2000/svg">
  <g transform="matrix(1 0 0 1 -29 -302 )">
    <path d="M 0.04284323271665044 0.20241477272727348  C 0.1071080817916261 0.0674715909090895  0.21064589419019797 0  0.35345666991236613 0  L 7.893865628042843 0  C 7.986692632262254 0  8.067023693605972 0.03373579545454308  8.134858812074002 0.10120738636363591  C 8.202693930542031 0.16867897727272707  8.236611489776045 0.25213068181818066  8.236611489776045 0.3515625  L 8.236611489776045 9.545454545454545  L 10.293086660175268 9.545454545454545  C 10.578708211619604 9.545454545454545  10.785783836416748 9.676846590909093  10.914313534566698 9.939630681818182  C 11.042843232716649 10.202414772727272  11.010710808179162 10.44744318181818  10.817916260954235 10.67471590909091  L 7.3904576436222005 14.765625  C 7.26192794547225 14.921875000000002  7.086984745212595 15  6.865628042843233 15  C 6.644271340473873 15  6.469328140214216 14.921875000000002  6.340798442064265 14.765625  L 2.9133398247322297 10.67471590909091  C 2.7276858162934117 10.454545454545453  2.6955533917559236 10.209517045454547  2.816942551119766 9.939630681818182  C 2.945472249269718 9.676846590909093  3.1525478740668618 9.545454545454545  3.4381694255111976 9.545454545454545  L 5.494644595910419 9.545454545454545  L 5.494644595910419 2.7272727272727266  L 2.067185978578384 2.7272727272727266  C 1.9672184355728661 2.7272727272727266  1.8779617007465108 2.688210227272727  1.7994157740993184 2.6100852272727266  L 0.08568646543330088 0.5646306818181812  C -0.007140538786108409 0.46519886363636187  -0.02142161635832522 0.34446022727272707  0.04284323271665044 0.20241477272727348  Z " fill-rule="nonzero" fill="#ffffff" stroke="none" transform="matrix(1 0 0 1 29 302 )" />
  </g>
</svg>