<?xml version="1.0" encoding="utf-8"?>
<svg version="1.1" xmlns:xlink="http://www.w3.org/1999/xlink" width="17px" height="17px" xmlns="http://www.w3.org/2000/svg">
  <g transform="matrix(1 0 0 1 -26 -355 )">
    <path d="M 16.6181640625 10.021809895833334  C 16.68825954861111 10.091905381944445  16.723307291666668 10.174913194444445  16.723307291666668 10.270833333333334  C 16.723307291666668 10.307725694444445  16.719618055555557 10.333550347222221  16.712239583333332 10.348307291666666  C 16.24001736111111 12.325737847222221  15.251302083333332 13.9287109375  13.74609375 15.1572265625  C 12.240885416666668 16.3857421875  10.477430555555557 17  8.455729166666666 17  C 7.378472222222223 17  6.336263020833334 16.79709201388889  5.3291015625 16.391276041666668  C 4.321940104166666 15.985460069444443  3.4236111111111116 15.40625  2.634114583333333 14.653645833333332  L 1.2063802083333335 16.081380208333332  C 1.0661892361111112 16.221571180555557  0.9001736111111112 16.291666666666668  0.7083333333333333 16.291666666666668  C 0.5164930555555556 16.291666666666668  0.3504774305555555 16.221571180555557  0.21028645833333331 16.081380208333332  C 0.07009548611111112 15.94118923611111  0 15.77517361111111  0 15.583333333333332  L 0 10.625  C 0 10.433159722222221  0.07009548611111112 10.267144097222221  0.21028645833333331 10.126953125  C 0.3504774305555555 9.986762152777775  0.5164930555555556 9.916666666666666  0.7083333333333333 9.916666666666666  L 5.666666666666666 9.916666666666666  C 5.858506944444445 9.916666666666666  6.024522569444445 9.986762152777775  6.164713541666666 10.126953125  C 6.304904513888889 10.267144097222221  6.375 10.433159722222221  6.375 10.625  C 6.375 10.816840277777775  6.304904513888889 10.982855902777775  6.164713541666666 11.123046875  L 4.6484375 12.639322916666666  C 5.172309027777779 13.126302083333332  5.766276041666666 13.502604166666668  6.430338541666666 13.768229166666668  C 7.094401041666666 14.033854166666668  7.784288194444445 14.166666666666668  8.5 14.166666666666668  C 9.488715277777777 14.166666666666668  10.411024305555557 13.926866319444443  11.266927083333332 13.447265625  C 12.122829861111112 12.967664930555554  12.809027777777779 12.307291666666666  13.325520833333332 11.466145833333334  C 13.406684027777779 11.340711805555555  13.602213541666668 10.909071180555555  13.912109375 10.171223958333334  C 13.971137152777779 10.001519097222221  14.081814236111112 9.916666666666666  14.244140625 9.916666666666666  L 16.369140625 9.916666666666666  C 16.46506076388889 9.916666666666666  16.54806857638889 9.951714409722221  16.6181640625 10.021809895833334  Z M 16.789713541666668 0.9186197916666673  C 16.92990451388889 1.058810763888888  17 1.224826388888888  17 1.4166666666666674  L 17 6.375  C 17 6.566840277777778  16.92990451388889 6.732855902777778  16.789713541666668 6.873046875  C 16.649522569444446 7.013237847222222  16.483506944444446 7.083333333333333  16.291666666666668 7.083333333333333  L 11.333333333333332 7.083333333333333  C 11.141493055555557 7.083333333333333  10.975477430555557 7.013237847222222  10.835286458333332 6.873046875  C 10.695095486111112 6.732855902777778  10.625000000000002 6.566840277777778  10.625 6.375  C 10.625000000000002 6.1831597222222205  10.695095486111112 6.0171440972222205  10.835286458333332 5.876953125  L 12.362630208333332 4.349609375  C 11.270616319444446 3.338758680555553  9.983072916666668 2.8333333333333326  8.5 2.8333333333333326  C 7.511284722222223 2.8333333333333326  6.588975694444445 3.073133680555553  5.733072916666666 3.552734375  C 4.877170138888889 4.032335069444443  4.190972222222223 4.692708333333333  3.674479166666667 5.533854166666667  C 3.5933159722222223 5.659288194444443  3.397786458333333 6.090928819444443  3.087890625 6.828776041666667  C 3.0288628472222223 6.998480902777778  2.9181857638888893 7.083333333333333  2.755859375 7.083333333333333  L 0.5533854166666667 7.083333333333333  C 0.45746527777777773 7.083333333333333  0.3744574652777778 7.048285590277778  0.30436197916666663 6.978190104166667  C 0.23426649305555558 6.908094618055555  0.19921875 6.825086805555555  0.19921875 6.729166666666667  L 0.19921875 6.651692708333333  C 0.6788194444444445 4.674262152777778  1.6749131944444446 3.0712890625  3.1875 1.8427734375  C 4.700086805555556 0.6142578125  6.470920138888889 0  8.5 0  C 9.577256944444445 0  10.625 0.2047526041666673  11.643229166666668 0.6142578125  C 12.661458333333332 1.0237630208333326  13.565321180555557 1.6011284722222205  14.354817708333332 2.3463541666666674  L 15.793619791666668 0.9186197916666673  C 15.93381076388889 0.778428819444443  16.09982638888889 0.7083333333333327  16.291666666666668 0.7083333333333327  C 16.483506944444446 0.7083333333333327  16.649522569444446 0.778428819444443  16.789713541666668 0.9186197916666673  Z " fill-rule="nonzero" fill="#ffffff" stroke="none" transform="matrix(1 0 0 1 26 355 )" />
  </g>
</svg>