<?xml version="1.0" encoding="utf-8"?>
<svg version="1.1" xmlns:xlink="http://www.w3.org/1999/xlink" width="21px" height="22px" xmlns="http://www.w3.org/2000/svg">
  <g transform="matrix(1 0 0 1 -412 -320 )">
    <path d="M 8.299829642248723 17.396205357142858  C 8.37137989778535 17.46986607142857  8.407155025553662 17.5639880952381  8.407155025553662 17.67857142857143  C 8.407155025553662 17.776785714285715  8.367404883588872 17.875  8.287904599659283 17.973214285714285  L 4.48381601362862 21.88950892857143  C 4.404315729699035 21.963169642857142  4.3128904031800115 22  4.20954003407155 22  C 4.114139693356048 22  4.022714366837024 21.963169642857142  3.9352640545144806 21.88950892857143  L 0.11925042589437819 17.9609375  C 0 17.82998511904762  -0.027825099375354895 17.686755952380953  0.03577512776831346 17.53125  C 0.09937535491198186 17.367559523809526  0.21862578080636005 17.285714285714285  0.39352640545144807 17.285714285714285  L 3 17.285714285714285  L 3 0.3928571428571439  C 2.6831345826235093 0.2782738095238073  2.7189097103918227 0.18415178571428537  2.7904599659284495 0.11049107142857073  C 2.8620102214650767 0.036830357142856096  2.9534355479841 0  3.06473594548552 0  L 5.35434412265758 0  C 5.465644520159001 0  5.557069846678024 0.036830357142856096  5.628620102214651 0.11049107142857073  C 5.7001703577512775 0.18415178571428537  5.735945485519591 0.2782738095238073  6 0.3928571428571439  L 6 17.285714285714285  L 8.025553662691653 17.285714285714285  C 8.136854060193071 17.285714285714285  8.228279386712096 17.322544642857142  8.299829642248723 17.396205357142858  Z M 20.89267461669506 18.96763392857143  C 20.964224872231686 19.041294642857142  21 19.135416666666668  21 19.25  L 21 21.607142857142858  C 21 21.72172619047619  20.964224872231686 21.815848214285715  20.89267461669506 21.88950892857143  C 20.821124361158432 21.963169642857142  20.729699034639413 22  20.61839863713799 22  L 10.696763202725723 22  C 10.585462805224305 22  10.49403747870528 21.963169642857142  10.422487223168654 21.88950892857143  C 10.350936967632027 21.815848214285715  10.315161839863714 21.72172619047619  10.315161839863714 21.607142857142858  L 10.315161839863714 19.25  C 10.315161839863714 19.135416666666668  10.350936967632027 19.041294642857142  10.422487223168654 18.96763392857143  C 10.49403747870528 18.893973214285715  10.585462805224305 18.857142857142858  10.696763202725723 18.857142857142858  L 20.61839863713799 18.857142857142858  C 20.729699034639413 18.857142857142858  20.821124361158432 18.893973214285715  20.89267461669506 18.96763392857143  Z M 18.603066439522998 12.681919642857142  C 18.674616695059626 12.755580357142858  18.71039182282794 12.84970238095238  18.71039182282794 12.964285714285715  L 18.71039182282794 15.321428571428571  C 18.71039182282794 15.436011904761902  18.674616695059626 15.530133928571429  18.603066439522998 15.603794642857142  C 18.531516183986373 15.677455357142858  18.44009085746735 15.714285714285715  18.32879045996593 15.714285714285715  L 10.696763202725723 15.714285714285715  C 10.585462805224305 15.714285714285715  10.49403747870528 15.677455357142858  10.422487223168654 15.603794642857142  C 10.350936967632027 15.530133928571429  10.315161839863714 15.436011904761902  10.315161839863714 15.321428571428571  L 10.315161839863714 12.964285714285715  C 10.315161839863714 12.84970238095238  10.350936967632027 12.755580357142858  10.422487223168654 12.681919642857142  C 10.49403747870528 12.608258928571429  10.585462805224305 12.571428571428571  10.696763202725723 12.571428571428571  L 18.32879045996593 12.571428571428571  C 18.44009085746735 12.571428571428571  18.531516183986373 12.608258928571429  18.603066439522998 12.681919642857142  Z M 16.313458262350938 6.396205357142856  C 16.385008517887567 6.469866071428571  16.420783645655877 6.563988095238093  16.420783645655877 6.678571428571429  L 16.420783645655877 9.035714285714285  C 16.420783645655877 9.150297619047617  16.385008517887567 9.244419642857144  16.313458262350938 9.318080357142856  C 16.24190800681431 9.391741071428571  16.150482680295287 9.428571428571429  16.039182282793867 9.428571428571429  L 10.696763202725723 9.428571428571429  C 10.585462805224305 9.428571428571429  10.49403747870528 9.391741071428571  10.422487223168654 9.318080357142856  C 10.350936967632027 9.244419642857144  10.315161839863714 9.150297619047617  10.315161839863714 9.035714285714285  L 10.315161839863714 6.678571428571429  C 10.315161839863714 6.563988095238093  10.350936967632027 6.469866071428571  10.422487223168654 6.396205357142856  C 10.49403747870528 6.322544642857144  10.585462805224305 6.285714285714286  10.696763202725723 6.285714285714286  L 16.039182282793867 6.285714285714286  C 16.150482680295287 6.285714285714286  16.24190800681431 6.322544642857144  16.313458262350938 6.396205357142856  Z M 14.023850085178875 0.11049107142857073  C 14.095400340715502 0.18415178571428537  14.131175468483816 0.2782738095238073  14.131175468483816 0.3928571428571439  L 14.131175468483816 2.75  C 14.131175468483816 2.8645833333333317  14.095400340715502 2.958705357142856  14.023850085178875 3.0323660714285707  C 13.952299829642248 3.1060267857142856  13.860874503123227 3.142857142857144  13.749574105621805 3.142857142857144  L 10.696763202725723 3.142857142857144  C 10.585462805224305 3.142857142857144  10.49403747870528 3.1060267857142856  10.422487223168654 3.0323660714285707  C 10.350936967632027 2.958705357142856  10.315161839863714 2.8645833333333317  10.315161839863714 2.75  L 10.315161839863714 0.3928571428571439  C 10.315161839863714 0.2782738095238073  10.350936967632027 0.18415178571428537  10.422487223168654 0.11049107142857073  C 10.49403747870528 0.036830357142856096  10.585462805224305 0  10.696763202725723 0  L 13.749574105621805 0  C 13.860874503123227 0  13.952299829642248 0.036830357142856096  14.023850085178875 0.11049107142857073  Z " fill-rule="nonzero" fill="#000000" stroke="none" transform="matrix(1 0 0 1 412 320 )" />
  </g>
</svg>