<?xml version="1.0" encoding="utf-8"?>
<svg version="1.1" xmlns:xlink="http://www.w3.org/1999/xlink" width="31px" height="37px" xmlns="http://www.w3.org/2000/svg">
  <g transform="matrix(1 0 0 1 -1067 -12 )">
    <path d="M 30.794140625 26.750325520833332  C 30.931380208333334 27.962782118055554  31 29.25151909722222  31 30.616536458333336  C 31 32.366970486111114  30.495442708333336 33.868489583333336  29.486328125 35.12109375  C 28.477213541666668 36.373697916666664  27.262239583333336 37  25.841406250000002 37  L 5.1585937500000005 37  C 3.7377604166666667 37  2.5227864583333335 36.373697916666664  1.5136718750000002 35.12109375  C 0.5045572916666669 33.868489583333336  0 32.366970486111114  0 30.616536458333336  C 0 29.25151909722222  0.06861979166666683 27.962782118055554  0.20585937500000018 26.750325520833332  C 0.34309895833333354 25.537868923611104  0.5973958333333335 24.3173828125  0.9687500000000002 23.0888671875  C 1.340104166666667 21.8603515625  1.8123697916666668 20.808485243055557  2.3855468749999997 19.933268229166668  C 2.9587239583333336 19.058051215277775  3.7175781249999997 18.343424479166664  4.662109375 17.789388020833336  C 5.606640625 17.2353515625  6.6924479166666675 16.958333333333336  7.91953125 16.958333333333336  C 10.034635416666667 19.013888888888886  12.561458333333334 20.041666666666668  15.5 20.041666666666668  C 18.438541666666673 20.041666666666668  20.965364583333336 19.013888888888886  23.080468749999998 16.958333333333336  C 24.307552083333334 16.958333333333336  25.393359375 17.2353515625  26.337890625 17.789388020833336  C 27.282421875 18.343424479166664  28.04127604166667 19.058051215277775  28.614453125 19.933268229166668  C 29.187630208333335 20.808485243055557  29.659895833333334 21.8603515625  30.03125 23.0888671875  C 30.40260416666667 24.3173828125  30.656901041666668 25.537868923611104  30.794140625 26.750325520833332  Z M 22.075390625 2.7099609375  C 23.891796875 4.5166015625  24.8 6.696614583333335  24.8 9.25  C 24.8 11.803385416666666  23.891796875 13.9833984375  22.075390625 15.7900390625  C 20.258984375 17.5966796875  18.0671875 18.5  15.5 18.5  C 12.932812499999999 18.5  10.741015625000001 17.5966796875  8.924609375000001 15.7900390625  C 7.108203125 13.9833984375  6.2 11.803385416666666  6.2 9.25  C 6.2 6.696614583333335  7.108203125 4.5166015625  8.924609375000001 2.7099609375  C 10.741015625000001 0.9033203125  12.932812499999999 0  15.5 0  C 18.0671875 0  20.258984375 0.9033203125  22.075390625 2.7099609375  Z " fill-rule="nonzero" fill="#000000" stroke="none" transform="matrix(1 0 0 1 1067 12 )" />
  </g>
</svg>