<?xml version="1.0" encoding="utf-8"?>
<svg version="1.1" xmlns:xlink="http://www.w3.org/1999/xlink" width="121px" height="170px" xmlns="http://www.w3.org/2000/svg">
  <g transform="matrix(1 0 0 1 -36 -433 )">
    <path d="M 96.5 433  C 130.38 433  157 470.4  157 518  C 157 565.6  130.38 603  96.5 603  C 62.62 603  36 565.6  36 518  C 36 470.4  62.62 433  96.5 433  Z " fill-rule="nonzero" fill="#ffffff" stroke="none" />
    <path d="M 96.5 433.5  C 130.10000000000002 433.5  156.5 470.68  156.5 518  C 156.5 565.3199999999999  130.10000000000002 602.5  96.5 602.5  C 62.9 602.5  36.5 565.3199999999999  36.5 518  C 36.5 470.68  62.9 433.5  96.5 433.5  Z " stroke-width="1" stroke="#797979" fill="none" />
  </g>
</svg>