<?xml version="1.0" encoding="utf-8"?>
<svg version="1.1" xmlns:xlink="http://www.w3.org/1999/xlink" width="26px" height="20px" xmlns="http://www.w3.org/2000/svg">
  <g transform="matrix(1 0 0 1 -346 -357 )">
    <path d="M 1.857142857142857 10  C 3.472470238095238 12.55952380952381  5.537574404761905 14.419642857142856  8.052455357142858 15.580357142857144  L 9.184151785714286 13.482142857142856  C 8.342633928571429 12.857142857142856  7.684895833333334 12.068452380952381  7.2109375 11.116071428571427  C 6.736979166666668 10.163690476190476  6.5 9.15674603174603  6.5 8.095238095238095  C 6.5 6.89484126984127  6.795014880952381 5.77876984126984  7.385044642857142 4.747023809523809  C 5.170014880952381 5.907738095238095  3.327380952380953 7.658730158730158  1.857142857142857 10  Z M 13.493303571428571 4.791666666666668  C 13.628720238095239 4.652777777777775  13.696428571428571 4.484126984126984  13.696428571428571 4.2857142857142865  C 13.696428571428571 4.087301587301586  13.628720238095239 3.918650793650793  13.493303571428571 3.7797619047619047  C 13.357886904761907 3.640873015873014  13.19345238095238 3.571428571428572  13 3.571428571428572  C 11.79092261904762 3.571428571428572  10.753534226190478 4.015376984126984  9.887834821428571 4.903273809523809  C 9.022135416666668 5.791170634920634  8.589285714285714 6.85515873015873  8.589285714285714 8.095238095238095  C 8.589285714285714 8.293650793650793  8.65699404761905 8.462301587301585  8.792410714285714 8.601190476190476  C 8.927827380952381 8.740079365079364  9.092261904761905 8.80952380952381  9.285714285714286 8.80952380952381  C 9.479166666666668 8.80952380952381  9.643601190476192 8.740079365079364  9.779017857142858 8.601190476190476  C 9.914434523809524 8.462301587301585  9.982142857142858 8.293650793650793  9.982142857142858 8.095238095238095  C 9.982142857142858 7.24206349206349  10.277157738095237 6.512896825396826  10.8671875 5.907738095238095  C 11.457217261904763 5.302579365079363  12.168154761904763 4.999999999999998  13 5  C 13.19345238095238 4.999999999999998  13.357886904761907 4.930555555555554  13.493303571428571 4.791666666666668  Z M 18.731026785714285 1.0416666666666674  C 18.88578869047619 1.140873015873014  18.963169642857142 1.274801587301586  18.963169642857142 1.4434523809523814  C 18.963169642857142 1.5128968253968234  18.958333333333336 1.5575396825396792  18.948660714285715 1.5773809523809534  C 17.9233630952381 3.4523809523809534  16.395089285714285 6.264880952380953  14.363839285714285 10.014880952380953  C 12.332589285714288 13.764880952380953  10.809151785714288 16.572420634920636  9.793526785714286 18.4375  L 9.082589285714286 19.761904761904763  C 8.985863095238095 19.92063492063492  8.850446428571429 20  8.676339285714286 20  C 8.560267857142858 20  7.912202380952381 19.65277777777778  6.732142857142858 18.958333333333332  C 6.577380952380953 18.859126984126984  6.5 18.720238095238095  6.5 18.541666666666668  C 6.5 18.422619047619047  6.7127976190476195 17.991071428571427  7.138392857142858 17.24702380952381  C 5.755208333333334 16.602182539682538  4.480840773809525 15.744047619047619  3.315290178571429 14.672619047619047  C 2.1497395833333335 13.601190476190476  1.141369047619048 12.385912698412698  0.29017857142857145 11.026785714285714  C 0.09672619047619047 10.71924603174603  0 10.376984126984127  0 10  C 0 9.623015873015872  0.09672619047619047 9.280753968253968  0.29017857142857145 8.973214285714286  C 1.770089285714286 6.641865079365079  3.607886904761905 4.8015873015873005  5.803571428571429 3.4523809523809534  C 7.999255952380953 2.1031746031746024  10.398065476190478 1.428571428571428  13 1.428571428571428  C 13.860863095238095 1.428571428571428  14.731398809523812 1.5128968253968234  15.611607142857144 1.6815476190476186  L 16.395089285714285 0.23809523809523725  C 16.491815476190474 0.07936507936507908  16.627232142857142 0  16.801339285714285 0  C 16.849702380952383 0  16.936755952380956 0.029761904761904656  17.0625 0.08928571428571397  C 17.188244047619047 0.14880952380952328  17.338169642857142 0.22569444444444198  17.512276785714285 0.3199404761904767  C 17.686383928571427 0.414186507936507  17.845982142857142 0.5059523809523814  17.991071428571427 0.5952380952380953  C 18.136160714285715 0.6845238095238093  18.288504464285715 0.7762896825396792  18.448102678571427 0.870535714285714  C 18.607700892857142 0.9647817460317443  18.702008928571427 1.0218253968253954  18.731026785714285 1.0416666666666674  Z M 19.383928571428573 6.845238095238095  C 19.461309523809526 7.291666666666668  19.5 7.708333333333332  19.5 8.095238095238095  C 19.5 9.474206349206348  19.117931547619047 10.731646825396822  18.353794642857142 11.867559523809524  C 17.58965773809524 13.003472222222221  16.578869047619047 13.819444444444443  15.321428571428571 14.31547619047619  L 19.383928571428573 6.845238095238095  Z M 25.709821428571427 8.973214285714286  C 25.90327380952381 9.310515873015872  26 9.652777777777777  26 10  C 26 10.347222222222221  25.90327380952381 10.689484126984127  25.709821428571427 11.026785714285714  C 25.332589285714285 11.661706349206346  24.805431547619047 12.380952380952381  24.128348214285715 13.18452380952381  C 22.677455357142858 14.89087301587302  20.996837797619047 16.21527777777778  19.086495535714285 17.157738095238095  C 17.176153273809526 18.10019841269841  15.147321428571429 18.571428571428573  13 18.571428571428573  L 14.073660714285715 16.607142857142854  C 16.124255952380956 16.428571428571427  18.02250744047619 15.749007936507935  19.768415178571427 14.568452380952381  C 21.514322916666668 13.387896825396822  22.97247023809524 11.865079365079364  24.142857142857142 10  C 23.030505952380956 8.224206349206348  21.666666666666668 6.765873015873016  20.051339285714285 5.625  L 20.965401785714285 3.9583333333333326  C 21.8843005952381 4.593253968253965  22.766927083333336 5.352182539682538  23.61328125 6.235119047619047  C 24.459635416666668 7.118055555555554  25.158482142857142 8.030753968253968  25.709821428571427 8.973214285714286  Z " fill-rule="nonzero" fill="#000000" stroke="none" transform="matrix(1 0 0 1 346 357 )" />
  </g>
</svg>