<?xml version="1.0" encoding="utf-8"?>
<svg version="1.1" xmlns:xlink="http://www.w3.org/1999/xlink" width="24px" height="29px" xmlns="http://www.w3.org/2000/svg">
  <g transform="matrix(1 0 0 1 -39 -357 )">
    <path d="M 6.666666666666667 9.227272727272728  L 6.666666666666667 13.181818181818183  L 17.333333333333332 13.181818181818183  L 17.333333333333332 9.227272727272728  C 17.333333333333332 7.771780303030302  16.8125 6.529119318181817  15.770833333333334 5.499289772727272  C 14.729166666666668 4.469460227272728  13.472222222222225 3.954545454545454  12 3.954545454545454  C 10.527777777777779 3.954545454545454  9.270833333333332 4.469460227272728  8.229166666666666 5.499289772727272  C 7.1875 6.529119318181817  6.666666666666667 7.771780303030302  6.666666666666667 9.227272727272728  Z M 23.416666666666664 13.758522727272728  C 23.805555555555557 14.142992424242424  24 14.60984848484848  24 15.159090909090908  L 24 27.022727272727273  C 24 27.5719696969697  23.805555555555557 28.038825757575758  23.416666666666664 28.423295454545453  C 23.027777777777782 28.807765151515152  22.555555555555557 29  22 29  L 2 29  C 1.4444444444444446 29  0.9722222222222223 28.807765151515152  0.5833333333333334 28.423295454545453  C 0.19444444444444442 28.038825757575758  0 27.5719696969697  0 27.022727272727273  L 0 15.159090909090908  C 0 14.60984848484848  0.19444444444444442 14.142992424242424  0.5833333333333334 13.758522727272728  C 0.9722222222222223 13.374053030303031  1.4444444444444446 13.181818181818183  2 13.181818181818183  L 2.6666666666666665 13.181818181818183  L 2.6666666666666665 9.227272727272728  C 2.6666666666666665 6.700757575757573  3.583333333333333 4.53125  5.416666666666667 2.71875  C 7.25 0.90625  9.444444444444445 0  12 0  C 14.555555555555557 0  16.75 0.90625  18.583333333333336 2.71875  C 20.416666666666664 4.53125  21.333333333333332 6.700757575757573  21.333333333333332 9.227272727272728  L 21.333333333333332 13.181818181818183  L 22 13.181818181818183  C 22.555555555555557 13.181818181818183  23.027777777777782 13.374053030303031  23.416666666666664 13.758522727272728  Z " fill-rule="nonzero" fill="#000000" stroke="none" transform="matrix(1 0 0 1 39 357 )" />
  </g>
</svg>