<?xml version="1.0" encoding="utf-8"?>
<svg version="1.1" xmlns:xlink="http://www.w3.org/1999/xlink" width="26px" height="31px" xmlns="http://www.w3.org/2000/svg">
  <g transform="matrix(1 0 0 1 -38 -354 )">
    <path d="M 25.82734375 22.412434895833332  C 25.942447916666666 23.428276909722218  26 24.50802951388889  26 25.651692708333336  C 26 27.118272569444446  25.576822916666668 28.376302083333336  24.73046875 29.42578125  C 23.884114583333336 30.475260416666664  22.86510416666667 31  21.673437500000002 31  L 4.3265625000000005 31  C 3.134895833333333 31  2.115885416666667 30.475260416666664  1.2695312500000002 29.42578125  C 0.4231770833333335 28.376302083333336  0 27.118272569444446  0 25.651692708333336  C 0 24.50802951388889  0.05755208333333347 23.428276909722218  0.17265625000000015 22.412434895833332  C 0.2877604166666668 21.39659288194444  0.5010416666666668 20.3740234375  0.8125000000000002 19.3447265625  C 1.1239583333333336 18.3154296875  1.5200520833333335 17.43413628472222  2.0007812499999997 16.700846354166668  C 2.481510416666667 15.967556423611107  3.1179687499999997 15.368815104166666  3.91015625 14.904622395833334  C 4.70234375 14.4404296875  5.613020833333334 14.208333333333334  6.6421875 14.208333333333334  C 8.416145833333335 15.930555555555554  10.535416666666668 16.791666666666668  13 16.791666666666668  C 15.464583333333337 16.791666666666668  17.58385416666667 15.930555555555554  19.357812499999998 14.208333333333334  C 20.38697916666667 14.208333333333334  21.29765625 14.4404296875  22.08984375 14.904622395833334  C 22.88203125 15.368815104166666  23.518489583333334 15.967556423611107  23.99921875 16.700846354166668  C 24.47994791666667 17.43413628472222  24.876041666666666 18.3154296875  25.1875 19.3447265625  C 25.498958333333334 20.3740234375  25.712239583333336 21.39659288194444  25.82734375 22.412434895833332  Z M 18.51484375 2.2705078125  C 20.03828125 3.7841796875  20.8 5.610677083333335  20.8 7.75  C 20.8 9.889322916666666  20.03828125 11.7158203125  18.51484375 13.2294921875  C 16.99140625 14.7431640625  15.153125 15.5  13 15.5  C 10.846874999999999 15.5  9.008593750000001 14.7431640625  7.48515625 13.2294921875  C 5.96171875 11.7158203125  5.2 9.889322916666666  5.2 7.75  C 5.2 5.610677083333335  5.96171875 3.7841796875  7.48515625 2.2705078125  C 9.008593750000001 0.7568359375  10.846874999999999 0  13 0  C 15.153125 0  16.99140625 0.7568359375  18.51484375 2.2705078125  Z " fill-rule="nonzero" fill="#000000" stroke="none" transform="matrix(1 0 0 1 38 354 )" />
  </g>
</svg>