<?xml version="1.0" encoding="utf-8"?>
<svg version="1.1" xmlns:xlink="http://www.w3.org/1999/xlink" width="30px" height="19px" xmlns="http://www.w3.org/2000/svg">
  <g transform="matrix(1 0 0 1 -46 -200 )">
    <path d="M 18.5546875 8.139154160982264  C 18.658854166666668 8.683492496589357  18.7109375 9.210550250113688  18.7109375 9.720327421555252  C 18.7109375 11.517507958162799  18.333333333333336 13.118121873578898  17.578125 14.522169167803549  C 16.822916666666664 15.926216462028194  15.746527777777779 17.023533424283766  14.348958333333334 17.81412005457026  C 12.951388888888891 18.604706684856755  11.34982638888889 19  9.544270833333334 19  C 8.250868055555557 19  7.01388888888889 18.74943155979991  5.833333333333333 18.248294679399727  C 4.652777777777779 17.747157798999545  3.637152777777778 17.073215097771715  2.7864583333333335 16.226466575716234  C 1.9357638888888888 15.379718053660753  1.2586805555555558 14.368804001819008  0.7552083333333335 13.193724420190996  C 0.25173611111111116 12.018644838562983  0 10.787403365165984  0 9.5  C 0 8.212596634834014  0.25173611111111116 6.981355161437014  0.7552083333333335 5.806275579809004  C 1.2586805555555558 4.63119599818099  1.9357638888888888 3.6202819463392437  2.7864583333333335 2.773533424283766  C 3.637152777777778 1.926784902228284  4.652777777777779 1.2528422010004518  5.833333333333333 0.751705320600272  C 7.01388888888889 0.25056844020008995  8.250868055555557 0  9.544270833333334 0  C 12.026909722222223 0  14.157986111111114 0.829467939972714  15.9375 2.488403819918144  L 13.346354166666666 4.9638472032742165  C 12.330729166666668 3.987494315597998  11.063368055555557 3.49931787175989  9.544270833333334 3.49931787175989  C 8.4765625 3.49931787175989  7.489149305555557 3.767166894042744  6.58203125 4.302864938608458  C 5.674913194444445 4.83856298317417  4.956597222222222 5.566507503410642  4.427083333333333 6.486698499317872  C 3.8975694444444455 7.406889495225102  3.6328125 8.411323328785812  3.6328125 9.5  C 3.6328125 10.588676671214188  3.8975694444444455 11.593110504774899  4.427083333333333 12.513301500682129  C 4.956597222222222 13.43349249658936  5.674913194444445 14.161437016825827  6.58203125 14.697135061391542  C 7.489149305555557 15.232833105957251  8.4765625 15.500682128240108  9.544270833333334 15.500682128240108  C 10.264756944444446 15.500682128240108  10.926649305555557 15.40131878126421  11.529947916666666 15.202592087312414  C 12.133246527777779 15.00386539336062  12.630208333333332 14.755457025920872  13.020833333333334 14.457366984993177  C 13.411458333333334 14.159276944065484  13.75217013888889 13.820145520691222  14.04296875 13.439972714870397  C 14.333767361111114 13.059799909049566  14.546440972222223 12.701227830832195  14.680989583333332 12.36425648021828  C 14.815538194444446 12.027285129604365  14.908854166666668 11.707594361073214  14.9609375 11.405184174624829  L 9.544270833333334 11.405184174624829  L 9.544270833333334 8.139154160982264  L 18.5546875 8.139154160982264  Z M 27.278645833333332 8.139154160982264  L 30 8.139154160982264  L 30 10.860845839017736  L 27.278645833333332 10.860845839017736  L 27.278645833333332 13.569577080491133  L 24.544270833333336 13.569577080491133  L 24.544270833333336 10.860845839017736  L 21.822916666666668 10.860845839017736  L 21.822916666666668 8.139154160982264  L 24.544270833333336 8.139154160982264  L 24.544270833333336 5.430422919508868  L 27.278645833333332 5.430422919508868  L 27.278645833333332 8.139154160982264  Z " fill-rule="nonzero" fill="#000000" stroke="none" transform="matrix(1 0 0 1 46 200 )" />
  </g>
</svg>