<?xml version="1.0" encoding="utf-8"?>
<svg version="1.1" xmlns:xlink="http://www.w3.org/1999/xlink" width="236px" height="303px" xmlns="http://www.w3.org/2000/svg">
  <g transform="matrix(1 0 0 1 -216 -184 )">
    <path d="M 334 184  C 400.08000000000004 184  452 250.66  452 335.5  C 452 420.34000000000003  400.08000000000004 487  334 487  C 267.92 487  216 420.34000000000003  216 335.5  C 216 250.66  267.92 184  334 184  Z " fill-rule="nonzero" fill="#ffffff" stroke="none" />
    <path d="M 334 184.5  C 399.8 184.5  451.5 250.94  451.5 335.5  C 451.5 420.06  399.8 486.5  334 486.5  C 268.2 486.5  216.5 420.06  216.5 335.5  C 216.5 250.94  268.2 184.5  334 184.5  Z " stroke-width="1" stroke="#797979" fill="none" />
  </g>
</svg>