<?xml version="1.0" encoding="utf-8"?>
<svg version="1.1" xmlns:xlink="http://www.w3.org/1999/xlink" width="12px" height="12px" xmlns="http://www.w3.org/2000/svg">
  <g transform="matrix(1 0 0 1 -35 -43 )">
    <path d="M 41 43  C 44.36 43  47 45.64  47 49  C 47 52.36  44.36 55  41 55  C 37.64 55  35 52.36  35 49  C 35 45.64  37.64 43  41 43  Z " fill-rule="nonzero" fill="#ffffff" stroke="none" />
    <path d="M 41 43.5  C 44.08 43.5  46.5 45.92  46.5 49  C 46.5 52.08  44.08 54.5  41 54.5  C 37.92 54.5  35.5 52.08  35.5 49  C 35.5 45.92  37.92 43.5  41 43.5  Z " stroke-width="1" stroke="#797979" fill="none" />
  </g>
</svg>