<?xml version="1.0" encoding="utf-8"?>
<svg version="1.1" xmlns:xlink="http://www.w3.org/1999/xlink" width="28px" height="50px" xmlns="http://www.w3.org/2000/svg">
  <g transform="matrix(1 0 0 1 -790 -2377 )">
    <path d="M 27.076388888888886 22.802734375  C 27.692129629629633 23.421223958333332  28 24.153645833333332  28 25  C 28 25.846354166666664  27.692129629629633 26.578776041666664  27.076388888888886 27.197265625  L 5.298611111111111 49.072265625  C 4.68287037037037 49.690755208333336  3.953703703703704 50  3.1111111111111107 50  C 2.268518518518519 50  1.5393518518518519 49.690755208333336  0.9236111111111112 49.072265625  C 0.30787037037037035 48.453776041666664  0 47.721354166666664  0 46.875  L 0 3.125  C 0 2.278645833333326  0.30787037037037035 1.546223958333326  0.9236111111111112 0.927734375  C 1.5393518518518519 0.30924479166666297  2.268518518518519 0  3.1111111111111107 0  C 3.953703703703704 0  4.68287037037037 0.30924479166666297  5.298611111111111 0.927734375  L 27.076388888888886 22.802734375  Z " fill-rule="nonzero" fill="#000000" stroke="none" transform="matrix(1 0 0 1 790 2377 )" />
  </g>
</svg>