<?xml version="1.0" encoding="utf-8"?>
<svg version="1.1" xmlns:xlink="http://www.w3.org/1999/xlink" width="28px" height="50px" xmlns="http://www.w3.org/2000/svg">
  <g transform="matrix(1 0 0 1 -239 -2377 )">
    <path d="M 27.076388888888886 0.927734375  C 27.692129629629633 1.546223958333326  28 2.278645833333326  28 3.125  L 28 46.875  C 28 47.721354166666664  27.692129629629633 48.453776041666664  27.076388888888886 49.072265625  C 26.460648148148152 49.690755208333336  25.73148148148148 50  24.888888888888886 50  C 24.046296296296298 50  23.317129629629633 49.690755208333336  22.701388888888886 49.072265625  L 0.9236111111111112 27.197265625  C 0.3078703703703708 26.578776041666664  0 25.846354166666664  0 25  C 0 24.153645833333332  0.3078703703703708 23.421223958333332  0.9236111111111112 22.802734375  L 22.701388888888886 0.927734375  C 23.317129629629633 0.30924479166666297  24.046296296296298 0  24.888888888888886 0  C 25.73148148148148 0  26.460648148148152 0.30924479166666297  27.076388888888886 0.927734375  Z " fill-rule="nonzero" fill="#000000" stroke="none" transform="matrix(1 0 0 1 239 2377 )" />
  </g>
</svg>