<?xml version="1.0" encoding="utf-8"?>
<svg version="1.1" xmlns:xlink="http://www.w3.org/1999/xlink" width="31px" height="31px" xmlns="http://www.w3.org/2000/svg">
  <g transform="matrix(1 0 0 1 -950 -60 )">
    <path d="M 19.152994791666664 19.152994791666668  C 20.162109375 18.143880208333332  20.666666666666664 16.92621527777778  20.666666666666664 15.5  C 20.666666666666664 14.07378472222222  20.162109375 12.856119791666666  19.152994791666664 11.847005208333334  C 18.143880208333336 10.837890625  16.926215277777782 10.333333333333334  15.5 10.333333333333334  C 14.073784722222223 10.333333333333334  12.856119791666668 10.837890625  11.847005208333332 11.847005208333334  C 10.837890625 12.856119791666666  10.333333333333332 14.07378472222222  10.333333333333332 15.5  C 10.333333333333332 16.92621527777778  10.837890625 18.143880208333332  11.847005208333332 19.152994791666668  C 12.856119791666668 20.162109375  14.073784722222223 20.666666666666668  15.5 20.666666666666668  C 16.926215277777782 20.666666666666668  18.143880208333336 20.162109375  19.152994791666664 19.152994791666668  Z M 21.130859375 9.869140625  C 22.678168402777782 11.416449652777773  23.451822916666664 13.293402777777773  23.451822916666664 15.5  C 23.451822916666664 17.70659722222222  22.678168402777782 19.58355034722222  21.130859375 21.130859375  C 19.58355034722222 22.67816840277778  17.70659722222222 23.451822916666664  15.5 23.451822916666664  C 13.293402777777779 23.451822916666664  11.416449652777779 22.67816840277778  9.869140625 21.130859375  C 8.321831597222223 19.58355034722222  7.548177083333334 17.70659722222222  7.548177083333334 15.5  C 7.548177083333334 13.293402777777773  8.321831597222223 11.416449652777773  9.869140625 9.869140625  C 11.416449652777779 8.32183159722222  13.293402777777779 7.548177083333335  15.5 7.548177083333335  C 17.70659722222222 7.548177083333335  19.58355034722222 8.32183159722222  21.130859375 9.869140625  Z M 25.086588541666664 5.913411458333335  C 25.449869791666664 6.276692708333335  25.631510416666664 6.713975694444443  25.631510416666664 7.225260416666665  C 25.631510416666664 7.736545138888888  25.449869791666664 8.173828125  25.086588541666664 8.537109375  C 24.723307291666664 8.900390625  24.286024305555557 9.08203125  23.774739583333336 9.08203125  C 23.26345486111111 9.08203125  22.826171875 8.900390625  22.462890625 8.537109375  C 22.099609375 8.173828125  21.91796875 7.736545138888888  21.91796875 7.225260416666665  C 21.91796875 6.713975694444443  22.099609375 6.276692708333335  22.462890625 5.913411458333335  C 22.826171875 5.550130208333335  23.26345486111111 5.368489583333335  23.774739583333336 5.368489583333335  C 24.286024305555557 5.368489583333335  24.723307291666664 5.550130208333335  25.086588541666664 5.913411458333335  Z M 17.0439453125 2.7750651041666656  C 16.108832465277782 2.7817925347222197  15.59418402777778 2.78515625  15.5 2.78515625  C 15.405815972222223 2.78515625  14.891167534722223 2.7817925347222197  13.9560546875 2.7750651041666656  C 13.020941840277779 2.768337673611108  12.311197916666668 2.768337673611108  11.826822916666668 2.7750651041666656  C 11.342447916666668 2.7817925347222197  10.693250868055555 2.8019748263888884  9.879231770833332 2.8356119791666656  C 9.065212673611112 2.8692491319444424  8.372287326388891 2.9365234375  7.800455729166667 3.0374348958333344  C 7.2286241319444455 3.1383463541666656  6.747612847222223 3.2628038194444424  6.357421875 3.4108072916666656  C 5.6846788194444455 3.6799045138888884  5.092664930555555 4.070095486111108  4.581380208333334 4.581380208333335  C 4.070095486111112 5.092664930555554  3.679904513888889 5.684678819444443  3.410807291666667 6.357421875  C 3.2628038194444446 6.74761284722222  3.138346354166667 7.228624131944443  3.037434895833333 7.800455729166665  C 2.9365234375 8.37228732638889  2.8692491319444446 9.065212673611107  2.835611979166667 9.879231770833334  C 2.801974826388889 10.693250868055554  2.7817925347222228 11.342447916666666  2.775065104166667 11.826822916666666  C 2.7683376736111116 12.311197916666666  2.7683376736111116 13.020941840277773  2.775065104166667 13.9560546875  C 2.7817925347222228 14.89116753472222  2.78515625 15.40581597222222  2.78515625 15.5  C 2.78515625 15.594184027777777  2.7817925347222228 16.10883246527778  2.775065104166667 17.0439453125  C 2.7683376736111116 17.97905815972222  2.7683376736111116 18.688802083333332  2.775065104166667 19.173177083333332  C 2.7817925347222228 19.657552083333332  2.801974826388889 20.30674913194444  2.835611979166667 21.120768229166668  C 2.8692491319444446 21.934787326388886  2.9365234375 22.627712673611107  3.037434895833333 23.199544270833332  C 3.138346354166667 23.771375868055554  3.2628038194444446 24.252387152777775  3.410807291666667 24.642578125  C 3.679904513888889 25.315321180555554  4.070095486111112 25.907335069444446  4.581380208333334 26.418619791666664  C 5.092664930555555 26.92990451388889  5.6846788194444455 27.32009548611111  6.357421875 27.589192708333336  C 6.747612847222223 27.737196180555554  7.2286241319444455 27.861653645833336  7.800455729166667 27.962565104166664  C 8.372287326388891 28.0634765625  9.065212673611112 28.130750868055554  9.879231770833332 28.164388020833336  C 10.693250868055555 28.19802517361111  11.342447916666668 28.218207465277782  11.826822916666668 28.224934895833336  C 12.311197916666668 28.23166232638889  13.020941840277779 28.23166232638889  13.9560546875 28.224934895833336  C 14.891167534722223 28.218207465277782  15.405815972222223 28.21484375  15.5 28.21484375  C 15.59418402777778 28.21484375  16.108832465277782 28.218207465277782  17.0439453125 28.224934895833336  C 17.97905815972222 28.23166232638889  18.688802083333336 28.23166232638889  19.173177083333336 28.224934895833336  C 19.657552083333336 28.218207465277782  20.306749131944446 28.19802517361111  21.120768229166664 28.164388020833336  C 21.934787326388893 28.130750868055554  22.62771267361111 28.0634765625  23.199544270833336 27.962565104166664  C 23.771375868055557 27.861653645833336  24.252387152777782 27.737196180555554  24.642578125 27.589192708333336  C 25.315321180555557 27.32009548611111  25.907335069444446 26.92990451388889  26.418619791666664 26.418619791666664  C 26.929904513888893 25.907335069444446  27.32009548611111 25.315321180555554  27.589192708333336 24.642578125  C 27.737196180555557 24.252387152777775  27.861653645833336 23.771375868055554  27.962565104166664 23.199544270833332  C 28.0634765625 22.627712673611107  28.130750868055557 21.934787326388886  28.164388020833336 21.120768229166668  C 28.19802517361111 20.30674913194444  28.218207465277782 19.657552083333332  28.224934895833336 19.173177083333332  C 28.231662326388893 18.688802083333332  28.231662326388893 17.97905815972222  28.224934895833336 17.0439453125  C 28.218207465277782 16.10883246527778  28.21484375 15.594184027777777  28.21484375 15.5  C 28.21484375 15.40581597222222  28.218207465277782 14.89116753472222  28.224934895833336 13.9560546875  C 28.231662326388893 13.020941840277773  28.231662326388893 12.311197916666666  28.224934895833336 11.826822916666666  C 28.218207465277782 11.342447916666666  28.19802517361111 10.693250868055554  28.164388020833336 9.879231770833334  C 28.130750868055557 9.065212673611107  28.0634765625 8.37228732638889  27.962565104166664 7.800455729166665  C 27.861653645833336 7.228624131944443  27.737196180555557 6.74761284722222  27.589192708333336 6.357421875  C 27.32009548611111 5.684678819444443  26.929904513888893 5.092664930555554  26.418619791666664 4.581380208333335  C 25.907335069444446 4.070095486111108  25.315321180555557 3.6799045138888884  24.642578125 3.4108072916666656  C 24.252387152777782 3.2628038194444424  23.771375868055557 3.1383463541666656  23.199544270833336 3.0374348958333344  C 22.62771267361111 2.9365234375  21.934787326388893 2.8692491319444424  21.120768229166664 2.8356119791666656  C 20.306749131944446 2.8019748263888884  19.657552083333336 2.7817925347222197  19.173177083333336 2.7750651041666656  C 18.688802083333336 2.768337673611108  17.97905815972222 2.768337673611108  17.0439453125 2.7750651041666656  Z M 30.899088541666664 9.102213541666666  C 30.966362847222218 10.286241319444443  31 12.418836805555554  31 15.5  C 31 18.581163194444446  30.966362847222218 20.713758680555554  30.899088541666664 21.897786458333332  C 30.764539930555557 24.696397569444446  29.930338541666664 26.862630208333336  28.396484375 28.396484375  C 26.862630208333336 29.930338541666664  24.696397569444446 30.764539930555554  21.897786458333336 30.899088541666664  C 20.713758680555557 30.966362847222218  18.581163194444446 31  15.5 31  C 12.418836805555555 31  10.286241319444445 30.966362847222218  9.102213541666668 30.899088541666664  C 6.303602430555556 30.764539930555554  4.137369791666667 29.930338541666664  2.603515625 28.396484375  C 1.0696614583333335 26.862630208333336  0.23546006944444448 24.696397569444446  0.10091145833333334 21.897786458333332  C 0.03363715277777777 20.713758680555554  0 18.581163194444446  0 15.5  C 0 12.418836805555554  0.03363715277777777 10.286241319444443  0.10091145833333334 9.102213541666666  C 0.23546006944444448 6.303602430555554  1.0696614583333335 4.137369791666665  2.603515625 2.603515625  C 4.137369791666667 1.0696614583333344  6.303602430555556 0.23546006944444253  9.102213541666668 0.10091145833333448  C 10.286241319444445 0.03363715277777357  12.418836805555555 0  15.5 0  C 18.581163194444446 0  20.713758680555557 0.03363715277777357  21.897786458333336 0.10091145833333448  C 24.696397569444446 0.23546006944444253  26.862630208333336 1.0696614583333344  28.396484375 2.603515625  C 29.930338541666664 4.137369791666665  30.764539930555557 6.303602430555554  30.899088541666664 9.102213541666666  Z " fill-rule="nonzero" fill="#000000" stroke="none" transform="matrix(1 0 0 1 950 60 )" />
  </g>
</svg>