<?xml version="1.0" encoding="utf-8"?>
<svg version="1.1" xmlns:xlink="http://www.w3.org/1999/xlink" width="31px" height="31px" xmlns="http://www.w3.org/2000/svg">
  <g transform="matrix(1 0 0 1 -872 -60 )">
    <path d="M 23.714192708333336 11.927734375  C 24.561848958333336 11.322265625  25.268229166666664 10.588975694444443  25.833333333333336 9.727864583333334  C 25.07986111111111 10.064236111111107  24.265842013888893 10.29296875  23.391276041666664 10.4140625  C 24.306206597222225 9.875868055555554  24.931857638888893 9.088758680555554  25.268229166666664 8.052734375  C 24.393663194444446 8.56401909722222  23.4921875 8.907118055555554  22.563802083333336 9.08203125  C 21.743055555555557 8.194010416666666  20.713758680555557 7.75  19.475911458333336 7.75  C 18.305338541666664 7.75  17.306315104166664 8.163736979166666  16.478841145833336 8.9912109375  C 15.6513671875 9.818684895833334  15.237630208333332 10.817708333333334  15.237630208333332 11.98828125  C 15.237630208333332 12.37847222222222  15.271267361111112 12.70138888888889  15.338541666666668 12.95703125  C 13.602864583333332 12.86284722222222  11.974826388888891 12.42556423611111  10.454427083333332 11.645182291666666  C 8.934027777777779 10.86480034722222  7.6423611111111125 9.822048611111107  6.579427083333334 8.516927083333334  C 6.189236111111112 9.18967013888889  5.994140625 9.902777777777773  5.994140625 10.65625  C 5.994140625 12.190104166666666  6.606336805555556 13.36740451388889  7.830729166666667 14.188151041666666  C 7.1983506944444455 14.174696180555554  6.525607638888889 13.99978298611111  5.8125 13.663411458333334  L 5.8125 13.703776041666666  C 5.8125 14.712890625  6.148871527777778 15.61100260416667  6.821614583333334 16.398111979166668  C 7.494357638888889 17.185221354166668  8.321831597222223 17.672960069444446  9.304036458333332 17.861328125  C 8.913845486111112 17.968967013888886  8.570746527777779 18.022786458333332  8.274739583333332 18.022786458333332  C 8.099826388888891 18.022786458333332  7.837456597222223 17.995876736111107  7.487630208333334 17.942057291666668  C 7.770182291666667 18.789713541666668  8.271375868055555 19.48936631944444  8.9912109375 20.041015625  C 9.711046006944445 20.592664930555554  10.528428819444446 20.875217013888886  11.443359375 20.888671875  C 9.88259548611111 22.099609375  8.12673611111111 22.705078125  6.17578125 22.705078125  C 5.825954861111112 22.705078125  5.489583333333334 22.684895833333332  5.166666666666666 22.64453125  C 7.157986111111112 23.909288194444446  9.32421875 24.541666666666664  11.665364583333332 24.541666666666664  C 13.172309027777779 24.541666666666664  14.585069444444446 24.302842881944446  15.903645833333334 23.8251953125  C 17.22222222222222 23.347547743055554  18.352430555555557 22.70844184027778  19.294270833333336 21.907877604166668  C 20.23611111111111 21.107313368055554  21.046766493055557 20.18565538194444  21.726236979166664 19.142903645833332  C 22.405707465277782 18.10015190972222  22.910264756944446 17.01030815972222  23.239908854166664 15.87337239583333  C 23.569552951388893 14.736436631944443  23.734375 13.602864583333334  23.734375 12.47265625  C 23.734375 12.23046875  23.727647569444446 12.048828125  23.714192708333336 11.927734375  Z M 29.294596354166664 1.7054036458333344  C 30.431532118055554 2.8423394097222197  31 4.211371527777773  31 5.8125  L 31 25.1875  C 31 26.788628472222218  30.431532118055554 28.157660590277782  29.294596354166664 29.294596354166664  C 28.157660590277782 30.431532118055554  26.788628472222225 31  25.1875 31  L 5.8125 31  C 4.211371527777778 31  2.8423394097222228 30.431532118055554  1.7054036458333335 29.294596354166664  C 0.5684678819444443 28.157660590277782  0 26.788628472222218  0 25.1875  L 0 5.8125  C 0 4.211371527777773  0.5684678819444443 2.8423394097222197  1.7054036458333335 1.7054036458333344  C 2.8423394097222228 0.5684678819444425  4.211371527777778 0  5.8125 0  L 25.1875 0  C 26.788628472222225 0  28.157660590277782 0.5684678819444425  29.294596354166664 1.7054036458333344  Z " fill-rule="nonzero" fill="#000000" stroke="none" transform="matrix(1 0 0 1 872 60 )" />
  </g>
</svg>