<?xml version="1.0" encoding="utf-8"?>
<svg version="1.1" xmlns:xlink="http://www.w3.org/1999/xlink" width="31px" height="31px" xmlns="http://www.w3.org/2000/svg">
  <g transform="matrix(1 0 0 1 -911 -60 )">
    <path d="M 5.8125 0  L 25.1875 0  C 26.788628472222225 0  28.157660590277782 0.5684678819444425  29.294596354166664 1.7054036458333344  C 30.431532118055554 2.8423394097222197  31 4.211371527777773  31 5.8125  L 31 25.1875  C 31 26.788628472222218  30.431532118055554 28.157660590277782  29.294596354166664 29.294596354166664  C 28.157660590277782 30.431532118055554  26.788628472222225 31  25.1875 31  L 21 31  L 21 18.991536458333332  L 25.409505208333336 18.991536458333332  L 26.014973958333336 14.309244791666666  L 21.393229166666664 14.309244791666666  L 21.393229166666664 11.322265625  C 21.393229166666664 10.568793402777773  21.551323784722225 10.003689236111107  21.867513020833336 9.626953125  C 22.183702256944446 9.25021701388889  22.799262152777782 9.061848958333334  23.714192708333336 9.061848958333334  L 26.176432291666664 9.041666666666666  L 26.176432291666664 4.863932291666665  C 25.328776041666664 4.742838541666665  24.131293402777782 4.682291666666665  22.583984375 4.682291666666665  C 20.754123263888893 4.682291666666665  19.290907118055557 5.220486111111108  18.1943359375 6.296875  C 17.097764756944446 7.373263888888888  16.549479166666664 8.893663194444443  16.549479166666664 10.858072916666666  L 16.549479166666664 14.309244791666666  L 12.513020833333332 14.309244791666666  L 12.513020833333332 18.991536458333332  L 16 18.991536458333332  L 16 31  L 5.8125 31  C 4.211371527777778 31  2.8423394097222228 30.431532118055554  1.7054036458333335 29.294596354166664  C 0.5684678819444443 28.157660590277782  0 26.788628472222218  0 25.1875  L 0 5.8125  C 0 4.211371527777773  0.5684678819444443 2.8423394097222197  1.7054036458333335 1.7054036458333344  C 2.8423394097222228 0.5684678819444425  4.211371527777778 0  5.8125 0  Z " fill-rule="nonzero" fill="#000000" stroke="none" transform="matrix(1 0 0 1 911 60 )" />
  </g>
</svg>