<?xml version="1.0" encoding="utf-8"?>
<svg version="1.1" xmlns:xlink="http://www.w3.org/1999/xlink" width="12px" height="12px" xmlns="http://www.w3.org/2000/svg">
  <g transform="matrix(1 0 0 1 -35 -109 )">
    <path d="M 41 109  C 44.36 109  47 111.64  47 115  C 47 118.36  44.36 121  41 121  C 37.64 121  35 118.36  35 115  C 35 111.64  37.64 109  41 109  Z " fill-rule="nonzero" fill="#000000" stroke="none" />
    <path d="M 41 109.5  C 44.08 109.5  46.5 111.92  46.5 115  C 46.5 118.08  44.08 120.5  41 120.5  C 37.92 120.5  35.5 118.08  35.5 115  C 35.5 111.92  37.92 109.5  41 109.5  Z " stroke-width="1" stroke="#797979" fill="none" />
  </g>
</svg>