<?xml version="1.0" encoding="utf-8"?>
<svg version="1.1" xmlns:xlink="http://www.w3.org/1999/xlink" width="27px" height="21px" xmlns="http://www.w3.org/2000/svg">
  <g transform="matrix(1 0 0 1 -741 -1948 )">
    <path d="M 25.493303571428573 8.068892045454547  C 26.065848214285715 7.681107954545453  26.56808035714286 7.248579545454547  27 6.7713068181818175  L 27 18.613636363636363  C 27 19.269886363636363  26.763950892857146 19.831676136363637  26.291852678571427 20.299005681818183  C 25.81975446428572 20.766335227272727  25.252232142857146 21  24.589285714285715 21  L 2.4107142857142856 21  C 1.7477678571428572 21  1.1802455357142858 20.766335227272727  0.7081473214285715 20.299005681818183  C 0.23604910714285723 19.831676136363637  0 19.269886363636363  0 18.613636363636363  L 0 6.7713068181818175  C 0.4419642857142858 7.258522727272726  0.9492187500000002 7.691051136363633  1.5217633928571428 8.068892045454547  C 5.157924107142858 10.514914772727273  7.654017857142857 12.230113636363637  9.010044642857142 13.214488636363637  C 9.582589285714286 13.632102272727273  10.047154017857144 13.957741477272725  10.403738839285714 14.19140625  C 10.760323660714286 14.42507102272727  11.234933035714286 14.663707386363637  11.827566964285714 14.907315340909093  C 12.420200892857144 15.150923295454545  12.97265625 15.272727272727273  13.484933035714286 15.272727272727273  L 13.5 15.272727272727273  L 13.515066964285714 15.272727272727273  C 14.027343750000004 15.272727272727273  14.579799107142858 15.150923295454545  15.172433035714286 14.907315340909093  C 15.765066964285717 14.663707386363637  16.23967633928572 14.42507102272727  16.596261160714285 14.19140625  C 16.952845982142858 13.957741477272725  17.417410714285715 13.632102272727273  17.989955357142858 13.214488636363637  C 19.697544642857146 11.991477272727273  22.19866071428572 10.27627840909091  25.493303571428573 8.068892045454547  Z M 26.284319196428573 0.7009943181818171  C 26.761439732142858 1.168323863636362  27 1.7301136363636367  27 2.3863636363636367  C 27 3.171874999999997  26.753906250000004 3.9225852272727266  26.26171875 4.6384943181818175  C 25.76953125 5.35440340909091  25.15680803571429 5.96590909090909  24.423549107142858 6.473011363636363  C 20.646763392857146 9.068181818181817  18.29631696428572 10.683948863636363  17.372209821428573 11.3203125  C 17.271763392857146 11.389914772727272  17.058314732142858 11.541548295454545  16.731863839285715 11.77521306818182  C 16.405412946428573 12.00887784090909  16.13420758928572 12.197798295454545  15.918247767857142 12.34197443181818  C 15.702287946428571 12.486150568181817  15.44112723214286 12.647727272727273  15.134765625 12.826704545454547  C 14.828404017857144 13.00568181818182  14.539620535714286 13.139914772727273  14.268415178571427 13.229403409090907  C 13.997209821428573 13.318892045454547  13.746093750000002 13.363636363636363  13.515066964285714 13.363636363636363  L 13.5 13.363636363636363  L 13.484933035714286 13.363636363636363  C 13.25390625 13.363636363636363  13.002790178571429 13.318892045454547  12.731584821428571 13.229403409090907  C 12.460379464285714 13.139914772727273  12.171595982142858 13.00568181818182  11.865234375 12.826704545454547  C 11.558872767857144 12.647727272727273  11.297712053571429 12.486150568181817  11.081752232142858 12.34197443181818  C 10.865792410714286 12.197798295454545  10.59458705357143 12.00887784090909  10.268136160714286 11.77521306818182  C 9.941685267857144 11.541548295454545  9.72823660714286 11.389914772727272  9.627790178571429 11.3203125  C 8.713727678571429 10.683948863636363  7.3978794642857135 9.776633522727273  5.680245535714286 8.598366477272727  C 3.9626116071428568 7.420099431818181  2.933035714285715 6.711647727272725  2.591517857142857 6.473011363636363  C 1.9687500000000002 6.055397727272725  1.3811383928571432 5.481178977272727  0.8286830357142858 4.750355113636363  C 0.27622767857142866 4.01953125  0 3.3409090909090904  0 2.7144886363636367  C 0 1.9389204545454537  0.20842633928571436 1.2926136363636336  0.625279017857143 0.7755681818181829  C 1.0421316964285716 0.2585227272727253  1.637276785714286 0  2.4107142857142856 0  L 24.589285714285715 0  C 25.2421875 0  25.80719866071429 0.23366477272727004  26.284319196428573 0.7009943181818171  Z " fill-rule="nonzero" fill="#000000" stroke="none" transform="matrix(1 0 0 1 741 1948 )" />
  </g>
</svg>