<?xml version="1.0" encoding="utf-8"?>
<svg version="1.1" xmlns:xlink="http://www.w3.org/1999/xlink" width="39px" height="37px" xmlns="http://www.w3.org/2000/svg">
  <g transform="matrix(1 0 0 1 -704 -3769 )">
    <path d="M 10.4 13.214285714285712  C 10.4 15.127604166666666  10.948437499999999 16.88950892857143  12.0453125 18.5  C 9.8515625 18.568824404761905  8.057291666666668 19.449776785714285  6.6625000000000005 21.142857142857142  L 3.9406250000000003 21.142857142857142  C 2.830208333333333 21.142857142857142  1.8958333333333337 20.86411830357143  1.1375 20.306640625  C 0.3791666666666666 19.74916294642857  0 18.93359375  0 17.85993303571429  C 0 13.000930059523807  0.8395833333333332 10.571428571428571  2.5187500000000003 10.571428571428571  C 2.6 10.571428571428571  2.89453125 10.715959821428571  3.40234375 11.005022321428571  C 3.91015625 11.294084821428571  4.5703125 11.586588541666666  5.3828125 11.882533482142858  C 6.1953125 12.178478422619047  7.001041666666667 12.326450892857142  7.800000000000001 12.326450892857142  C 8.707291666666666 12.326450892857142  9.6078125 12.16815476190476  10.5015625 11.8515625  C 10.433854166666668 12.36086309523809  10.4 12.815104166666666  10.4 13.214285714285712  Z M 33.72890625 29.515345982142858  C 33.776302083333334 30.210472470238095  33.800000000000004 30.92280505952381  33.800000000000004 31.65234375  C 33.800000000000004 33.304129464285715  33.305729166666666 34.60835193452381  32.317187499999996 35.565011160714285  C 31.328645833333336 36.52167038690476  30.01510416666667 37  28.376562500000002 37  L 10.6234375 37  C 8.984895833333335 37  7.671354166666669 36.52167038690476  6.6828125 35.565011160714285  C 5.694270833333333 34.60835193452381  5.2 33.304129464285715  5.2 31.65234375  C 5.2 30.92280505952381  5.2236979166666675 30.210472470238095  5.27109375 29.515345982142858  C 5.318489583333334 28.820219494047617  5.41328125 28.070033482142858  5.55546875 27.26478794642857  C 5.69765625 26.459542410714285  5.877083333333334 25.712797619047617  6.09375 25.02455357142857  C 6.310416666666667 24.33630952380952  6.6015625 23.66527157738095  6.9671875000000005 23.011439732142858  C 7.3328125 22.35760788690476  7.752604166666667 21.800130208333332  8.2265625 21.33900669642857  C 8.700520833333334 20.87788318452381  9.279427083333335 20.509672619047617  9.963281250000001 20.234375  C 10.647135416666668 19.95907738095238  11.402083333333334 19.82142857142857  12.228125 19.82142857142857  C 12.363541666666668 19.82142857142857  12.6546875 19.969401041666664  13.1015625 20.265345982142858  C 13.5484375 20.561290922619047  14.042708333333334 20.89164806547619  14.584375 21.256417410714285  C 15.12604166666667 21.62118675595238  15.850520833333334 21.95154389880952  16.7578125 22.247488839285715  C 17.66510416666667 22.543433779761905  18.57916666666667 22.69140625  19.5 22.69140625  C 20.420833333333334 22.69140625  21.334895833333334 22.543433779761905  22.2421875 22.247488839285715  C 23.14947916666667 21.95154389880952  23.873958333333338 21.62118675595238  24.415625000000002 21.256417410714285  C 24.957291666666666 20.89164806547619  25.451562499999998 20.561290922619047  25.8984375 20.265345982142858  C 26.345312500000002 19.969401041666664  26.636458333333337 19.82142857142857  26.771874999999998 19.82142857142857  C 27.59791666666667 19.82142857142857  28.35286458333334 19.95907738095238  29.03671875 20.234375  C 29.72057291666667 20.509672619047617  30.299479166666668 20.87788318452381  30.7734375 21.33900669642857  C 31.24739583333334 21.800130208333332  31.6671875 22.35760788690476  32.0328125 23.011439732142858  C 32.3984375 23.66527157738095  32.68958333333334 24.33630952380952  32.90625 25.02455357142857  C 33.12291666666667 25.712797619047617  33.30234375 26.459542410714285  33.44453125 27.26478794642857  C 33.58671875 28.070033482142858  33.68151041666667 28.820219494047617  33.72890625 29.515345982142858  Z M 11.4765625 1.5485491071428583  C 12.4921875 2.5809151785714293  13 3.8266369047619015  13 5.285714285714287  C 13 6.744791666666665  12.4921875 7.9905133928571415  11.4765625 9.022879464285712  C 10.4609375 10.055245535714288  9.235416666666667 10.571428571428571  7.800000000000001 10.571428571428571  C 6.364583333333335 10.571428571428571  5.1390625000000005 10.055245535714288  4.1234375 9.022879464285712  C 3.1078124999999996 7.9905133928571415  2.6 6.744791666666665  2.6 5.285714285714287  C 2.6 3.8266369047619015  3.1078124999999996 2.5809151785714293  4.1234375 1.5485491071428583  C 5.1390625000000005 0.5161830357142875  6.364583333333335 0  7.800000000000001 0  C 9.235416666666667 0  10.4609375 0.5161830357142875  11.4765625 1.5485491071428583  Z M 25.014843749999997 7.608537946428571  C 26.538281249999997 9.157087053571429  27.299999999999997 11.025669642857142  27.299999999999997 13.214285714285712  C 27.299999999999997 15.402901785714288  26.538281249999997 17.271484375  25.014843749999997 18.820033482142858  C 23.491406249999997 20.368582589285715  21.653125 21.142857142857142  19.5 21.142857142857142  C 17.346875000000004 21.142857142857142  15.508593750000001 20.368582589285715  13.98515625 18.820033482142858  C 12.46171875 17.271484375  11.7 15.402901785714288  11.7 13.214285714285712  C 11.7 11.025669642857142  12.46171875 9.157087053571429  13.98515625 7.608537946428571  C 15.508593750000001 6.059988839285713  17.346875000000004 5.285714285714287  19.5 5.285714285714287  C 21.653125 5.285714285714287  23.491406249999997 6.059988839285713  25.014843749999997 7.608537946428571  Z M 36.48125 10.571428571428571  C 38.16041666666668 10.571428571428571  39.00000000000001 13.000930059523807  39 17.85993303571429  C 39.00000000000001 18.93359375  38.62083333333334 19.74916294642857  37.8625 20.306640625  C 37.10416666666667 20.86411830357143  36.16979166666667 21.142857142857142  35.059374999999996 21.142857142857142  L 32.3375 21.142857142857142  C 30.94270833333334 19.449776785714285  29.1484375 18.568824404761905  26.954687500000002 18.5  C 28.0515625 16.88950892857143  28.599999999999998 15.127604166666666  28.599999999999998 13.214285714285712  C 28.599999999999998 12.815104166666666  28.566145833333334 12.36086309523809  28.498437499999998 11.8515625  C 29.392187500000002 12.16815476190476  30.292708333333337 12.326450892857142  31.200000000000003 12.326450892857142  C 31.998958333333334 12.326450892857142  32.8046875 12.178478422619047  33.6171875 11.882533482142858  C 34.4296875 11.586588541666666  35.08984375 11.294084821428571  35.59765625 11.005022321428571  C 36.10546875 10.715959821428571  36.4 10.571428571428571  36.48125 10.571428571428571  Z M 34.8765625 1.5485491071428583  C 35.8921875 2.5809151785714293  36.4 3.8266369047619015  36.4 5.285714285714287  C 36.4 6.744791666666665  35.8921875 7.9905133928571415  34.8765625 9.022879464285712  C 33.8609375 10.055245535714288  32.635416666666664 10.571428571428571  31.200000000000003 10.571428571428571  C 29.764583333333334 10.571428571428571  28.5390625 10.055245535714288  27.5234375 9.022879464285712  C 26.5078125 7.9905133928571415  26 6.744791666666665  26 5.285714285714287  C 26 3.8266369047619015  26.5078125 2.5809151785714293  27.5234375 1.5485491071428583  C 28.5390625 0.5161830357142875  29.764583333333334 0  31.200000000000003 0  C 32.635416666666664 0  33.8609375 0.5161830357142875  34.8765625 1.5485491071428583  Z " fill-rule="nonzero" fill="#000000" stroke="none" transform="matrix(1 0 0 1 704 3769 )" />
  </g>
</svg>