<?xml version="1.0" encoding="utf-8"?>
<svg version="1.1" xmlns:xlink="http://www.w3.org/1999/xlink" width="52px" height="52px" xmlns="http://www.w3.org/2000/svg">
  <g transform="matrix(1 0 0 1 -53 -3192 )">
    <path d="M 79 3192  C 93.56 3192  105 3203.44  105 3218  C 105 3232.56  93.56 3244  79 3244  C 64.44 3244  53 3232.56  53 3218  C 53 3203.44  64.44 3192  79 3192  Z " fill-rule="nonzero" fill="#f2f2f2" stroke="none" />
    <path d="M 79 3192.5  C 93.28 3192.5  104.5 3203.72  104.5 3218  C 104.5 3232.28  93.28 3243.5  79 3243.5  C 64.72 3243.5  53.5 3232.28  53.5 3218  C 53.5 3203.72  64.72 3192.5  79 3192.5  Z " stroke-width="1" stroke="#aaaaaa" fill="none" />
  </g>
</svg>