<?xml version="1.0" encoding="utf-8"?>
<svg version="1.1" xmlns:xlink="http://www.w3.org/1999/xlink" width="46px" height="46px" xmlns="http://www.w3.org/2000/svg">
  <g transform="matrix(1 0 0 1 -128 -72 )">
    <path d="M 151 72  C 163.88 72  174 82.12  174 95  C 174 107.88  163.88 118  151 118  C 138.12 118  128 107.88  128 95  C 128 82.12  138.12 72  151 72  Z " fill-rule="nonzero" fill="#ffffff" stroke="none" />
    <path d="M 151 72.5  C 163.6 72.5  173.5 82.4  173.5 95  C 173.5 107.6  163.6 117.5  151 117.5  C 138.4 117.5  128.5 107.6  128.5 95  C 128.5 82.4  138.4 72.5  151 72.5  Z " stroke-width="1" stroke="#797979" fill="none" />
  </g>
</svg>