<?xml version="1.0" encoding="utf-8"?>
<svg version="1.1" xmlns:xlink="http://www.w3.org/1999/xlink" width="15px" height="20px" xmlns="http://www.w3.org/2000/svg">
  <g transform="matrix(1 0 0 1 -116 -175 )">
    <path d="M 0.05842259006815969 0.26988636363636465  C 0.14605647517039924 0.08996212121211933  0.2872444011684518 0  0.4819863680623175 0  L 10.764362220058423 0  C 10.890944498539437 0  11.000486854917234 0.044981060606057444  11.09298928919182 0.1349431818181812  C 11.185491723466406 0.22490530303030276  11.231742940603699 0.3361742424242409  11 0.46875  L 11 12.727272727272727  L 14.036027263875365 12.727272727272727  C 14.425511197663097 12.727272727272727  14.707887049659202 12.902462121212125  14.88315481986368 13.252840909090908  C 15.058422590068158 13.603219696969695  15.01460564751704 13.929924242424239  14.75170399221032 14.232954545454547  L 10.077896786757547 19.6875  C 9.902629016553067 19.895833333333336  9.664070107108083 20  9.36222005842259 20  C 9.060370009737099 20  8.821811100292113 19.895833333333336  8.646543330087633 19.6875  L 3.9727361246348587 14.232954545454547  C 3.719571567672834 13.939393939393938  3.675754625121714 13.612689393939394  3.841285296981499 13.252840909090908  C 4.016553067185979 12.902462121212125  4.298928919182084 12.727272727272727  4.688412852969815 12.727272727272727  L 7.49269717624148 12.727272727272727  L 7.49269717624148 3.6363636363636354  L 2.818889970788705 3.6363636363636354  C 2.6825705939629994 3.6363636363636354  2.560856864654333 3.5842803030303028  2.453748782862707 3.4801136363636354  L 0.11684518013631938 0.7528409090909083  C -0.009737098344693286 0.6202651515151492  -0.029211295034079845 0.45928030303030276  0.05842259006815969 0.26988636363636465  Z " fill-rule="nonzero" fill="#ffffff" stroke="none" transform="matrix(1 0 0 1 116 175 )" />
  </g>
</svg>