<?xml version="1.0" encoding="utf-8"?>
<svg version="1.1" xmlns:xlink="http://www.w3.org/1999/xlink" width="9px" height="17px" xmlns="http://www.w3.org/2000/svg">
  <g transform="matrix(1 0 0 1 -195 -3 )">
    <path d="M 8.87473233404711 10.349888392857142  C 8.958244111349037 10.628162202380953  9.000000000000002 10.925409226190476  9 11.241629464285714  C 9.000000000000002 12.209263392857142  8.680406852248396 13.042503720238095  8.041220556745182 13.741350446428573  C 7.402034261241971 14.440197172619047  6.571734475374732 14.871837797619047  5.550321199143469 15.036272321428571  L 5.550321199143469 16.69642857142857  C 5.550321199143469 16.784970238095237  5.521413276231263 16.857700892857142  5.463597430406852 16.914620535714285  C 5.405781584582441 16.97154017857143  5.331905781584583 17  5.241970021413276 17  L 3.9411134903640255 17  C 3.857601713062099 17  3.785331905781585 16.969959077380953  3.724304068522484 16.909877232142858  C 3.6632762312633833 16.849795386904763  3.632762312633833 16.778645833333336  3.632762312633833 16.69642857142857  L 3.632762312633833 15.036272321428571  C 3.2087794432548185 14.979352678571429  2.7992505353319057 14.881324404761905  2.4041755888650966 14.7421875  C 2.0091006423982867 14.603050595238095  1.6830835117773022 14.462332589285714  1.4261241970021414 14.320033482142858  C 1.1691648822269807 14.177734375  0.9314775160599573 14.025948660714286  0.7130620985010707 13.864676339285714  C 0.4946466809421842 13.703404017857142  0.34528907922912216 13.584821428571427  0.26498929336188437 13.508928571428573  C 0.18468950749464672 13.433035714285714  0.12847965738758033 13.376116071428573  0.09635974304068522 13.338169642857142  C -0.012847965738757985 13.205357142857142  -0.019271948608137045 13.075706845238095  0.07708779443254818 12.94921875  L 1.0695931477516059 11.668526785714286  C 1.1145610278372593 11.605282738095237  1.1884368308351179 11.567336309523808  1.291220556745182 11.5546875  C 1.3875802997858673 11.54203869047619  1.4646680942184154 11.570498511904761  1.5224839400428265 11.640066964285714  L 1.5417558886509635 11.659040178571427  C 2.2676659528907925 12.28515625  3.0481798715203428 12.680431547619047  3.8832976445396143 12.844866071428573  C 4.120985010706638 12.895461309523808  4.358672376873662 12.920758928571427  4.596359743040685 12.920758928571427  C 5.116702355460385 12.920758928571427  5.574411134903641 12.784784226190476  5.96948608137045 12.512834821428573  C 6.364561027837259 12.240885416666666  6.562098501070663 11.855096726190476  6.562098501070663 11.35546875  C 6.562098501070663 11.178385416666666  6.5139186295503215 11.01078869047619  6.417558886509637 10.852678571428573  C 6.3211991434689505 10.694568452380953  6.213597430406853 10.561755952380953  6.094753747323341 10.454241071428573  C 5.975910064239829 10.34672619047619  5.788008565310493 10.228143601190476  5.5310492505353315 10.098493303571427  C 5.274089935760172 9.96884300595238  5.062098501070664 9.867652529761903  4.895074946466809 9.794921875  C 4.728051391862956 9.722191220238095  4.471092077087794 9.619419642857142  4.124197002141328 9.486607142857142  C 3.873661670235546 9.385416666666666  3.676124197002141 9.306361607142858  3.5315845824411136 9.249441964285714  C 3.387044967880086 9.192522321428573  3.189507494646681 9.108723958333332  2.9389721627408996 8.998046875  C 2.6884368308351174 8.887369791666666  2.4876873661670236 8.789341517857142  2.3367237687366167 8.703962053571427  C 2.1857601713062103 8.618582589285714  2.0042826552462527 8.506324404761903  1.7922912205567452 8.3671875  C 1.5802997858672376 8.228050595238095  1.4084582441113493 8.093656994047619  1.2767665952890792 7.96400669642857  C 1.1450749464668095 7.834356398809522  1.0053533190578159 7.679408482142857  0.8576017130620985 7.49916294642857  C 0.7098501070663812 7.318917410714285  0.5958244111349037 7.135509672619047  0.515524625267666 6.948939732142857  C 0.43522483940042833 6.762369791666665  0.36777301927194866 6.552083333333333  0.31316916488222696 6.318080357142857  C 0.2585653104925054 6.084077380952381  0.23126338329764454 5.837425595238095  0.23126338329764454 5.578125  C 0.23126338329764454 4.705357142857143  0.5460385438972162 3.940104166666665  1.1755888650963597 3.2823660714285707  C 1.8051391862955035 2.624627976190474  2.624197002141328 2.2008928571428568  3.632762312633833 2.0111607142857135  L 3.632762312633833 0.3035714285714294  C 3.632762312633833 0.2213541666666654  3.6632762312633833 0.15020461309523792  3.724304068522484 0.09012276785714313  C 3.785331905781585 0.030040922619048338  3.857601713062099 0  3.9411134903640255 0  L 5.241970021413276 0  C 5.331905781584583 0  5.405781584582441 0.02845982142857062  5.463597430406852 0.08537946428571375  C 5.521413276231263 0.14229910714285687  5.550321199143469 0.2150297619047602  5.550321199143469 0.3035714285714294  L 5.550321199143469 1.9732142857142863  C 5.916488222698073 2.0111607142857135  6.2714132762312635 2.083891369047617  6.615096359743041 2.19140625  C 6.958779443254819 2.298921130952381  7.238222698072806 2.4048549107142865  7.453426124197002 2.5092075892857135  C 7.668629550321199 2.6135602678571432  7.872591006423983 2.7321428571428568  8.065310492505354 2.8649553571428568  C 8.258029978586723 2.9977678571428568  8.383297644539615 3.089471726190474  8.441113490364025 3.1400669642857135  C 8.498929336188437 3.1906622023809517  8.547109207708779 3.2349330357142865  8.585653104925054 3.2728794642857135  C 8.694860813704498 3.38671875  8.710920770877944 3.50688244047619  8.633832976445396 3.6333705357142865  L 7.853319057815846 5.01841517857143  C 7.801927194860814 5.11328125  7.728051391862955 5.163876488095238  7.63169164882227 5.170200892857143  C 7.541755888650964 5.189174107142857  7.455032119914348 5.16703869047619  7.37152034261242 5.103794642857143  C 7.352248394004282 5.08482142857143  7.305674518201285 5.046875  7.231798715203426 4.989955357142857  C 7.157922912205569 4.9330357142857135  7.032655246252679 4.849237351190474  6.855995717344753 4.738560267857143  C 6.679336188436832 4.627883184523808  6.491434689507495 4.526692708333333  6.292291220556745 4.4349888392857135  C 6.093147751605996 4.343284970238095  5.8538543897216275 4.261067708333333  5.574411134903641 4.18833705357143  C 5.294967880085653 4.115606398809522  5.0203426124197 4.07924107142857  4.750535331905781 4.07924107142857  C 4.140256959314775 4.07924107142857  3.6423982869379015 4.215215773809522  3.2569593147751608 4.48716517857143  C 2.87152034261242 4.759114583333333  2.6788008565310495 5.110119047619047  2.6788008565310495 5.54017857142857  C 2.6788008565310495 5.704613095238095  2.706102783725911 5.856398809523808  2.7607066381156313 5.9955357142857135  C 2.8153104925053536 6.134672619047617  2.910064239828694 6.265904017857143  3.044967880085653 6.3892299107142865  C 3.1798715203426124 6.51255580357143  3.306745182012848 6.616908482142857  3.4255888650963597 6.70228794642857  C 3.5444325481798717 6.7876674107142865  3.724304068522484 6.885695684523808  3.965203426124197 6.996372767857143  C 4.2061027837259095 7.107049851190474  4.400428265524625 7.19242931547619  4.548179871520343 7.2525111607142865  C 4.69593147751606 7.312593005952381  4.920770877944326 7.39955357142857  5.22269807280514 7.513392857142857  C 5.563169164882227 7.639880952380952  5.823340471092077 7.739490327380952  6.00321199143469 7.812220982142857  C 6.183083511777303 7.884951636904762  6.427194860813704 7.995628720238095  6.735546038543897 8.144252232142858  C 7.0438972162740905 8.292875744047619  7.2864025695931485 8.427269345238095  7.463062098501071 8.547433035714286  C 7.639721627408995 8.667596726190476  7.838865096359744 8.825706845238095  8.060492505353318 9.021763392857142  C 8.282119914346897 9.21781994047619  8.45235546038544 9.418619791666666  8.57119914346895 9.624162946428573  C 8.690042826552462 9.829706101190476  8.791220556745182 10.07161458333333  8.87473233404711 10.349888392857142  Z " fill-rule="nonzero" fill="#000000" stroke="none" transform="matrix(1 0 0 1 195 3 )" />
  </g>
</svg>