<?xml version="1.0" encoding="utf-8"?>
<svg version="1.1" xmlns:xlink="http://www.w3.org/1999/xlink" width="20px" height="26px" xmlns="http://www.w3.org/2000/svg">
  <g transform="matrix(1 0 0 1 -141 -82 )">
    <path d="M 0.07789678675754626 0.35085227272727404  C 0.19474196689386564 0.11695075757575513  0.38299253489126905 0  0.6426484907497566 0  L 14.352482960077896 0  C 14.521259331385917 0  14.667315806556314 0.05847537878787468  14.790652385589095 0.17542613636363558  C 14.913988964621874 0.2923768939393936  14.975657254138266 0.43702651515151314  15 0.609375  L 15 16.545454545454547  L 18.714703018500487 16.545454545454547  C 19.234014930217462 16.545454545454547  19.61051606621227 16.77320075757576  19.844206426484906 17.22869318181818  C 20.077896786757545 17.684185606060602  20.019474196689387 18.10890151515151  19.668938656280428 18.50284090909091  L 13.43719571567673 25.59375  C 13.20350535540409 25.864583333333336  12.885426809477444 26  12.482960077896788 26  C 12.080493346316132 26  11.762414800389484 25.864583333333336  11.528724440116845 25.59375  L 5.296981499513144 18.50284090909091  C 4.959428756897112 18.12121212121212  4.901006166828951 17.69649621212121  5.121713729308666 17.22869318181818  C 5.355404089581305 16.77320075757576  5.731905225576113 16.545454545454547  6.251217137293087 16.545454545454547  L 10 16.545454545454547  L 10 4.727272727272726  L 3.758519961051607 4.727272727272726  C 3.5767607919506657 4.727272727272726  3.4144758195391107 4.659564393939394  3.2716650438169426 4.524147727272726  L 0.15579357351509251 0.9786931818181808  C -0.012982797792924381 0.8063446969696939  -0.03894839337877313 0.5970643939393936  0.07789678675754626 0.35085227272727404  Z " fill-rule="nonzero" fill="#ffffff" stroke="none" transform="matrix(1 0 0 1 141 82 )" />
  </g>
</svg>