<?xml version="1.0" encoding="utf-8"?>
<svg version="1.1" xmlns:xlink="http://www.w3.org/1999/xlink" width="26px" height="15px" xmlns="http://www.w3.org/2000/svg">
  <g transform="matrix(1 0 0 1 -137 -325 )">
    <path d="M 25.517578125 0.4947916666666674  C 25.839192708333336 0.8246527777777762  26 1.2152777777777741  26 1.6666666666666674  C 26 2.118055555555554  25.839192708333336 2.5086805555555536  25.517578125 2.8385416666666674  L 14.142578125 14.505208333333332  C 13.820963541666668 14.835069444444446  13.440104166666668 15  13 15  C 12.559895833333336 15  12.179036458333336 14.835069444444446  11.857421875 14.505208333333332  L 0.482421875 2.8385416666666674  C 0.16080729166666666 2.5086805555555536  0 2.118055555555554  0 1.6666666666666674  C 0 1.2152777777777741  0.16080729166666666 0.8246527777777762  0.482421875 0.4947916666666674  C 0.8040364583333334 0.16493055555555358  1.1848958333333335 0  1.625 0  L 24.375 0  C 24.815104166666668 0  25.195963541666668 0.16493055555555358  25.517578125 0.4947916666666674  Z " fill-rule="nonzero" fill="#000000" stroke="none" transform="matrix(1 0 0 1 137 325 )" />
  </g>
</svg>